<?xml version="1.0" encoding="UTF-8"?>
<svg xmlns="http://www.w3.org/2000/svg" width="210mm" height="297mm" version="1.1" viewBox="0 0 595.3 841.9">
  <!-- Generator: Adobe Illustrator 28.7.1, SVG Export Plug-In . SVG Version: 1.2.0 Build 142)  -->
  <g>
    <g >
      <g>
        <path d="M351.3,421.9s9.5-6.7,26.2,4.2c16.7,10.8,13.9,24.4,13.9,24.4l-81,98.9-50.3,24.7,10.9-54.8,80.3-97.3Z" fill="none" stroke="#231815" strokeMiterlimit="10" strokeWidth="2"/>
        <g>
          <path d="M271.1,519.6s19.2,7.8,22.5,10.4,16.6,19.1,16.6,19.1l-50,24.9,10.9-54.4Z" fill="#231815" stroke="#231815" strokeMiterlimit="10"/>
          <path d="M265.8,547.5s4.4.4,9,3.7,9,10.5,9,10.5l26.3-12.7s-.6-12.1-15.3-21.3-23.4-8-23.4-8l-5.6,27.8Z" fill="#efefef" stroke="#231815" strokeMiterlimit="10" strokeWidth="2"/>
        </g>
      </g>
      <line x1="301" y1="532.2" x2="384.8" y2="432.2" fill="none" stroke="#231815" strokeMiterlimit="10" strokeWidth="2"/>
      <line x1="286.6" y1="522.9" x2="370.1" y2="422.1" fill="none" stroke="#231815" strokeMiterlimit="10" strokeWidth="2"/>
    </g>
  </g>
</svg>