<svg width="132" height="30" viewBox="0 0 132 30" fill="none" xmlns="http://www.w3.org/2000/svg">
<rect width="132" height="30" rx="5" fill="black"/>
<path d="M35.12 20.376C35.296 19.976 35.328 19.704 35.328 19.336C35.328 18.12 35.328 12.44 35.328 10.648C35.328 10.056 35.232 9.288 35.136 8.84H37.648C37.568 9.448 37.504 10.04 37.504 10.648C37.504 12.424 37.504 17.752 37.504 18.968C40.112 18.232 43.68 16.184 45.728 13.672L46.864 15.496C44.672 18.104 41.344 20.024 37.568 21.256C37.36 21.32 37.008 21.432 36.624 21.688L35.12 20.376ZM56.064 11.512C56.368 12.184 57.152 14.28 57.376 15.016L55.472 15.672C55.264 14.904 54.56 12.968 54.176 12.136L56.064 11.512ZM61.968 12.664C61.792 13.192 61.696 13.528 61.6 13.848C61.184 15.464 60.496 17.128 59.408 18.52C57.92 20.456 55.936 21.784 54.064 22.504L52.384 20.792C54.128 20.312 56.368 19.096 57.68 17.432C58.768 16.088 59.552 13.96 59.728 11.944L61.968 12.664ZM52.352 12.344C52.752 13.16 53.536 15.112 53.84 16.008L51.888 16.728C51.632 15.88 50.816 13.736 50.432 13.048L52.352 12.344ZM77.328 10.168C77.2 10.344 76.912 10.824 76.768 11.16C76.112 12.68 74.928 14.856 73.552 16.456C71.76 18.52 69.344 20.504 66.864 21.672L65.2 19.944C67.792 18.984 70.256 17.032 71.76 15.368C72.816 14.168 73.792 12.584 74.16 11.448C73.488 11.448 69.408 11.448 68.72 11.448C68.064 11.448 67.184 11.528 66.832 11.56V9.272C67.264 9.336 68.256 9.384 68.72 9.384C69.568 9.384 73.664 9.384 74.368 9.384C75.072 9.384 75.696 9.304 76.032 9.192L77.328 10.168ZM73.76 15.128C75.408 16.472 77.68 18.856 78.72 20.136L76.896 21.72C75.712 20.072 73.968 18.168 72.256 16.616L73.76 15.128ZM83.856 8.84C84.96 9.592 87.04 11.256 87.984 12.232L86.352 13.896C85.52 13 83.504 11.256 82.336 10.456L83.856 8.84ZM81.84 19.496C84.352 19.144 86.416 18.328 87.968 17.416C90.704 15.784 92.784 13.352 93.808 11.192L95.04 13.432C93.84 15.608 91.712 17.816 89.136 19.368C87.504 20.344 85.44 21.224 83.2 21.608L81.84 19.496ZM97.712 7.864H99.648V12.696C99.648 15.496 99.424 19.736 98.016 22.44C97.648 22.136 96.768 21.672 96.272 21.496C97.616 18.984 97.712 15.288 97.712 12.712V7.864ZM99.216 7.864H110.448V11.64H99.216V10.184H108.528V9.32H99.216V7.864ZM105.52 18.184H109.488V19.224H105.52V18.184ZM104.656 12.52H110.912V13.72H104.656V12.52ZM109.104 18.184H109.408L109.712 18.136L110.688 18.52C109.52 20.952 106.88 21.992 103.712 22.456C103.584 22.072 103.264 21.496 102.992 21.176C105.776 20.904 108.192 20.056 109.104 18.36V18.184ZM105.568 18.872C106.592 20.136 108.8 20.84 111.472 21.048C111.152 21.352 110.752 21.944 110.56 22.344C107.712 21.976 105.488 20.968 104.272 19.208L105.568 18.872ZM105.568 17.432L107.024 17.848C106.24 18.984 104.88 19.976 103.616 20.616C103.36 20.344 102.8 19.816 102.48 19.576C103.712 19.08 104.928 18.296 105.568 17.432ZM105.52 16.344V16.888H108.736V16.344H105.52ZM105.52 15.048V15.56H108.736V15.048H105.52ZM103.984 14.216H110.352V17.72H103.984V14.216ZM104.72 11.624L106.176 12.12C105.568 13.432 104.544 14.856 103.52 15.72C103.376 15.384 102.96 14.552 102.688 14.184C103.488 13.56 104.272 12.6 104.72 11.624ZM101.968 14.296L103.44 14.856C102.624 16.264 101.28 17.72 100 18.6C99.888 18.248 99.456 17.352 99.216 16.952C100.24 16.312 101.328 15.336 101.968 14.296ZM100.624 16.968L101.728 15.848L102.288 16.024V22.424H100.624V16.968ZM101.824 11.768L103.296 12.264C102.656 13.208 101.616 14.216 100.704 14.824C100.48 14.52 99.952 13.88 99.632 13.592C100.464 13.144 101.312 12.472 101.824 11.768ZM114.864 7.992H127.216V9.72H114.864V7.992ZM114.992 20.44H127.296V22.152H114.992V20.44ZM121.44 17.608H125.952V19.256H121.44V17.608ZM115.872 11.224H120.848V12.664H115.872V11.224ZM113.6 7.992H115.408V12.936C115.408 15.672 115.216 19.768 113.92 22.408C113.568 22.136 112.768 21.688 112.304 21.528C113.504 19.064 113.6 15.464 113.6 12.936V7.992ZM117.616 9.944H119.2V16.488H117.616V9.944ZM120.352 16.216H122.224V21.528H120.352V16.216ZM116.784 17.416H118.576V21.336H116.784V17.416ZM117.632 12.024L118.672 12.376C118.144 13.864 117.152 15.464 116.16 16.296C115.904 15.96 115.44 15.416 115.104 15.16C116.08 14.504 117.104 13.208 117.632 12.024ZM121.232 11.224H126.96V12.664H121.232V11.224ZM123.04 9.944H124.64V16.488H123.04V9.944ZM122.976 12.024L124.016 12.376C123.472 13.8 122.496 15.32 121.504 16.12C121.248 15.768 120.768 15.24 120.448 14.968C121.424 14.36 122.448 13.144 122.976 12.024ZM119.136 12.808C119.488 13 120.608 13.752 120.896 13.96L119.968 15.144C119.584 14.696 118.672 13.848 118.224 13.48L119.136 12.808ZM124.736 12.072C125.296 13.208 126.384 14.344 127.568 14.888C127.216 15.192 126.736 15.768 126.48 16.168C125.264 15.4 124.208 13.912 123.632 12.408L124.736 12.072Z" fill="white"/>
<circle cx="16.0001" cy="15.0002" r="11.5" fill="white" stroke="#2F2F2F" stroke-width="3"/>
<path d="M16.8959 13.0714V8.6003C16.8959 8.17283 16.5493 7.82629 16.1218 7.82629C15.6944 7.82629 15.3478 8.17283 15.3478 8.6003V14.6524C15.3478 15.2047 15.7956 15.6524 16.3478 15.6524H22.3834C22.82 15.6524 23.1739 15.2985 23.1739 14.8619C23.1739 14.4253 22.82 14.0714 22.3834 14.0714H17.8959C17.3436 14.0714 16.8959 13.6236 16.8959 13.0714Z" fill="black"/>
</svg>
