<svg width="166" height="60" viewBox="0 0 166 60" fill="none" xmlns="http://www.w3.org/2000/svg">
<path d="M9.33353e-05 6.99999C9.33353e-05 4.23857 2.23867 1.99998 5.00009 1.99998L57.1056 1.99998C59.867 1.99998 62.1056 4.23856 62.1056 6.99998L62.1056 48.4892C62.1056 51.2506 59.867 53.4892 57.1056 53.4892H5.0001C2.23867 53.4892 9.33353e-05 51.2506 9.33353e-05 48.4892L9.33353e-05 6.99999Z" fill="white"/>
<path d="M3.8927 12.1312C3.8927 9.36981 6.13128 7.13123 8.8927 7.13123H52.6821C55.4435 7.13123 57.6821 9.3698 57.6821 12.1312V44.0657C57.6821 46.8271 55.4435 49.0657 52.6821 49.0657H8.89269C6.13127 49.0657 3.8927 46.8271 3.8927 44.0657V12.1312Z" fill="black"/>
<rect x="8.84705" y="12.6163" width="8.84694" height="8.84694" rx="2" fill="white"/>
<path d="M20.5249 14.6163C20.5249 13.5117 21.4203 12.6163 22.5249 12.6163H27.3718C28.4764 12.6163 29.3718 13.5117 29.3718 14.6163V19.4633C29.3718 20.5678 28.4764 21.4633 27.3718 21.4633H22.5249C21.4203 21.4633 20.5249 20.5678 20.5249 19.4633V14.6163Z" fill="white"/>
<rect x="32.203" y="12.6163" width="8.84694" height="8.84694" rx="2" fill="white"/>
<path d="M43.8809 14.6163C43.8809 13.5117 44.7763 12.6163 45.8809 12.6163H50.7278C51.8324 12.6163 52.7278 13.5117 52.7278 14.6163V19.4633C52.7278 20.5678 51.8324 21.4633 50.7278 21.4633H45.8809C44.7763 21.4633 43.8809 20.5678 43.8809 19.4633V14.6163Z" fill="white"/>
<rect x="8.84705" y="23.5865" width="8.84694" height="8.84694" rx="2" fill="white"/>
<path d="M20.525 25.5865C20.525 24.4819 21.4205 23.5865 22.525 23.5865H27.372C28.4765 23.5865 29.372 24.4819 29.372 25.5865V30.4334C29.372 31.538 28.4765 32.4334 27.372 32.4334H22.525C21.4205 32.4334 20.525 31.538 20.525 30.4334V25.5865Z" fill="white"/>
<rect x="32.203" y="23.5865" width="8.84694" height="8.84694" rx="2" fill="white"/>
<path d="M43.8809 25.5865C43.8809 24.4819 44.7763 23.5865 45.8809 23.5865H50.7278C51.8324 23.5865 52.7278 24.4819 52.7278 25.5865V30.4334C52.7278 31.538 51.8324 32.4334 50.7278 32.4334H45.8809C44.7763 32.4334 43.8809 31.538 43.8809 30.4334V25.5865Z" fill="white"/>
<rect x="8.84705" y="34.5567" width="8.84694" height="8.84694" rx="2" fill="white"/>
<path d="M20.525 36.5567C20.525 35.4521 21.4205 34.5567 22.525 34.5567H27.372C28.4765 34.5567 29.372 35.4521 29.372 36.5567V41.4037C29.372 42.5082 28.4765 43.4037 27.372 43.4037H22.525C21.4205 43.4037 20.525 42.5082 20.525 41.4037V36.5567Z" fill="white"/>
<rect x="32.203" y="34.5567" width="8.84694" height="8.84694" rx="2" fill="white"/>
<path d="M43.8809 36.5567C43.8809 35.4521 44.7763 34.5567 45.8809 34.5567H50.7278C51.8324 34.5567 52.7278 35.4521 52.7278 36.5567V41.4037C52.7278 42.5082 51.8324 43.4037 50.7278 43.4037H45.8809C44.7763 43.4037 43.8809 42.5082 43.8809 41.4037V36.5567Z" fill="white"/>
<rect x="19.7937" y="52.6349" width="22.0952" height="4.14286" fill="white"/>
<rect x="15.6509" y="56.3174" width="30.3809" height="3.68254" rx="1.84127" fill="white"/>
<path d="M75.46 35.39C75.36 35.55 75.2533 35.67 75.14 35.75C75.0333 35.83 74.8933 35.87 74.72 35.87C74.5667 35.87 74.4 35.8233 74.22 35.73C74.0467 35.63 73.8467 35.52 73.62 35.4C73.4 35.28 73.1467 35.1733 72.86 35.08C72.5733 34.98 72.2467 34.93 71.88 34.93C71.2467 34.93 70.7733 35.0667 70.46 35.34C70.1533 35.6067 70 35.97 70 36.43C70 36.7233 70.0933 36.9667 70.28 37.16C70.4667 37.3533 70.71 37.52 71.01 37.66C71.3167 37.8 71.6633 37.93 72.05 38.05C72.4433 38.1633 72.8433 38.2933 73.25 38.44C73.6567 38.58 74.0533 38.7467 74.44 38.94C74.8333 39.1333 75.18 39.38 75.48 39.68C75.7867 39.98 76.0333 40.3467 76.22 40.78C76.4067 41.2067 76.5 41.7233 76.5 42.33C76.5 43.0033 76.3833 43.6333 76.15 44.22C75.9167 44.8067 75.5767 45.32 75.13 45.76C74.69 46.1933 74.1433 46.5367 73.49 46.79C72.8433 47.0367 72.1067 47.16 71.28 47.16C70.8267 47.16 70.3633 47.1133 69.89 47.02C69.4233 46.9267 68.97 46.7967 68.53 46.63C68.09 46.4567 67.6767 46.2533 67.29 46.02C66.9033 45.7867 66.5667 45.5267 66.28 45.24L67.28 43.66C67.36 43.5467 67.4633 43.4533 67.59 43.38C67.7233 43.3 67.8667 43.26 68.02 43.26C68.22 43.26 68.42 43.3233 68.62 43.45C68.8267 43.5767 69.0567 43.7167 69.31 43.87C69.57 44.0233 69.8667 44.1633 70.2 44.29C70.5333 44.4167 70.9267 44.48 71.38 44.48C71.9933 44.48 72.47 44.3467 72.81 44.08C73.15 43.8067 73.32 43.3767 73.32 42.79C73.32 42.45 73.2267 42.1733 73.04 41.96C72.8533 41.7467 72.6067 41.57 72.3 41.43C72 41.29 71.6567 41.1667 71.27 41.06C70.8833 40.9533 70.4867 40.8367 70.08 40.71C69.6733 40.5767 69.2767 40.4167 68.89 40.23C68.5033 40.0367 68.1567 39.7867 67.85 39.48C67.55 39.1667 67.3067 38.78 67.12 38.32C66.9333 37.8533 66.84 37.28 66.84 36.6C66.84 36.0533 66.95 35.52 67.17 35C67.39 34.48 67.7133 34.0167 68.14 33.61C68.5667 33.2033 69.09 32.88 69.71 32.64C70.33 32.3933 71.04 32.27 71.84 32.27C72.2867 32.27 72.72 32.3067 73.14 32.38C73.5667 32.4467 73.97 32.55 74.35 32.69C74.73 32.8233 75.0833 32.9867 75.41 33.18C75.7433 33.3667 76.04 33.58 76.3 33.82L75.46 35.39ZM85.7442 39.09C85.6509 39.2033 85.5609 39.2933 85.4742 39.36C85.3876 39.4267 85.2642 39.46 85.1042 39.46C84.9509 39.46 84.8109 39.4233 84.6842 39.35C84.5642 39.2767 84.4276 39.1967 84.2742 39.11C84.1209 39.0167 83.9409 38.9333 83.7342 38.86C83.5276 38.7867 83.2709 38.75 82.9642 38.75C82.5842 38.75 82.2542 38.82 81.9742 38.96C81.7009 39.1 81.4742 39.3 81.2942 39.56C81.1142 39.82 80.9809 40.14 80.8942 40.52C80.8076 40.8933 80.7642 41.3167 80.7642 41.79C80.7642 42.7833 80.9542 43.5467 81.3342 44.08C81.7209 44.6133 82.2509 44.88 82.9242 44.88C83.2842 44.88 83.5676 44.8367 83.7742 44.75C83.9876 44.6567 84.1676 44.5567 84.3142 44.45C84.4609 44.3367 84.5942 44.2333 84.7142 44.14C84.8409 44.0467 84.9976 44 85.1842 44C85.4309 44 85.6176 44.09 85.7442 44.27L86.6442 45.38C86.3242 45.7467 85.9876 46.0467 85.6342 46.28C85.2809 46.5067 84.9176 46.6867 84.5442 46.82C84.1776 46.9467 83.8076 47.0333 83.4342 47.08C83.0609 47.1333 82.6976 47.16 82.3442 47.16C81.7109 47.16 81.1042 47.04 80.5242 46.8C79.9509 46.56 79.4442 46.2133 79.0042 45.76C78.5709 45.3 78.2242 44.7367 77.9642 44.07C77.7109 43.4033 77.5842 42.6433 77.5842 41.79C77.5842 41.0433 77.6942 40.3467 77.9142 39.7C78.1409 39.0467 78.4709 38.4833 78.9042 38.01C79.3442 37.53 79.8842 37.1533 80.5242 36.88C81.1709 36.6067 81.9176 36.47 82.7642 36.47C83.5776 36.47 84.2909 36.6 84.9042 36.86C85.5176 37.12 86.0709 37.5 86.5642 38L85.7442 39.09ZM90.9508 37.54C91.3241 37.22 91.7274 36.9633 92.1608 36.77C92.6008 36.57 93.1241 36.47 93.7308 36.47C94.2974 36.47 94.7974 36.57 95.2308 36.77C95.6708 36.9633 96.0408 37.2367 96.3408 37.59C96.6408 37.9367 96.8674 38.3533 97.0208 38.84C97.1741 39.32 97.2508 39.8433 97.2508 40.41V47H94.1508V40.41C94.1508 39.9033 94.0341 39.51 93.8008 39.23C93.5674 38.9433 93.2241 38.8 92.7708 38.8C92.4308 38.8 92.1108 38.8733 91.8108 39.02C91.5174 39.16 91.2308 39.3533 90.9508 39.6V47H87.8508V32.03H90.9508V37.54ZM105.707 40.57C105.707 40.3233 105.674 40.0833 105.607 39.85C105.547 39.6167 105.444 39.41 105.297 39.23C105.157 39.0433 104.97 38.8933 104.737 38.78C104.504 38.6667 104.22 38.61 103.887 38.61C103.3 38.61 102.84 38.78 102.507 39.12C102.174 39.4533 101.954 39.9367 101.847 40.57H105.707ZM101.807 42.37C101.907 43.2367 102.17 43.8667 102.597 44.26C103.024 44.6467 103.574 44.84 104.247 44.84C104.607 44.84 104.917 44.7967 105.177 44.71C105.437 44.6233 105.667 44.5267 105.867 44.42C106.074 44.3133 106.26 44.2167 106.427 44.13C106.6 44.0433 106.78 44 106.967 44C107.214 44 107.4 44.09 107.527 44.27L108.427 45.38C108.107 45.7467 107.76 46.0467 107.387 46.28C107.02 46.5067 106.64 46.6867 106.247 46.82C105.86 46.9467 105.47 47.0333 105.077 47.08C104.69 47.1333 104.32 47.16 103.967 47.16C103.24 47.16 102.557 47.0433 101.917 46.81C101.284 46.57 100.727 46.2167 100.247 45.75C99.7737 45.2833 99.397 44.7033 99.117 44.01C98.8437 43.3167 98.707 42.51 98.707 41.59C98.707 40.8967 98.8237 40.24 99.057 39.62C99.297 39 99.637 38.4567 100.077 37.99C100.524 37.5233 101.06 37.1533 101.687 36.88C102.32 36.6067 103.034 36.47 103.827 36.47C104.514 36.47 105.14 36.5767 105.707 36.79C106.28 37.0033 106.77 37.3133 107.177 37.72C107.59 38.1267 107.91 38.6267 108.137 39.22C108.37 39.8067 108.487 40.4733 108.487 41.22C108.487 41.4533 108.477 41.6433 108.457 41.79C108.437 41.9367 108.4 42.0533 108.347 42.14C108.294 42.2267 108.22 42.2867 108.127 42.32C108.04 42.3533 107.927 42.37 107.787 42.37H101.807ZM116.328 39.41C116.095 39.15 115.842 38.97 115.568 38.87C115.295 38.7633 115.008 38.71 114.708 38.71C114.422 38.71 114.158 38.7667 113.918 38.88C113.678 38.9933 113.468 39.1767 113.288 39.43C113.115 39.6767 112.978 40 112.878 40.4C112.778 40.8 112.728 41.2833 112.728 41.85C112.728 42.3967 112.768 42.8567 112.848 43.23C112.928 43.6033 113.038 43.9067 113.178 44.14C113.325 44.3667 113.498 44.53 113.698 44.63C113.898 44.73 114.122 44.78 114.368 44.78C114.595 44.78 114.798 44.76 114.978 44.72C115.165 44.6733 115.335 44.61 115.488 44.53C115.642 44.45 115.785 44.35 115.918 44.23C116.058 44.1033 116.195 43.96 116.328 43.8V39.41ZM119.428 32.03V47H117.508C117.122 47 116.868 46.8267 116.748 46.48L116.508 45.69C116.302 45.91 116.085 46.11 115.858 46.29C115.632 46.47 115.385 46.6267 115.118 46.76C114.858 46.8867 114.575 46.9833 114.268 47.05C113.968 47.1233 113.642 47.16 113.288 47.16C112.748 47.16 112.248 47.04 111.788 46.8C111.328 46.56 110.932 46.2133 110.598 45.76C110.265 45.3067 110.002 44.7533 109.808 44.1C109.622 43.44 109.528 42.69 109.528 41.85C109.528 41.0767 109.635 40.36 109.848 39.7C110.062 39.0333 110.362 38.46 110.748 37.98C111.142 37.4933 111.612 37.1133 112.158 36.84C112.705 36.5667 113.308 36.43 113.968 36.43C114.508 36.43 114.962 36.5067 115.328 36.66C115.695 36.8133 116.028 37.02 116.328 37.28V32.03H119.428ZM130.823 36.63V47H128.903C128.516 47 128.263 46.8267 128.143 46.48L127.963 45.88C127.763 46.0733 127.556 46.25 127.343 46.41C127.129 46.5633 126.899 46.6967 126.653 46.81C126.413 46.9167 126.149 47 125.863 47.06C125.583 47.1267 125.276 47.16 124.943 47.16C124.376 47.16 123.873 47.0633 123.433 46.87C122.999 46.67 122.633 46.3933 122.333 46.04C122.033 45.6867 121.806 45.27 121.653 44.79C121.499 44.31 121.423 43.7833 121.423 43.21V36.63H124.523V43.21C124.523 43.7233 124.639 44.12 124.873 44.4C125.106 44.68 125.449 44.82 125.903 44.82C126.243 44.82 126.559 44.75 126.853 44.61C127.153 44.4633 127.443 44.2667 127.723 44.02V36.63H130.823ZM136.029 32.03V47H132.929V32.03H136.029ZM144.574 40.57C144.574 40.3233 144.541 40.0833 144.474 39.85C144.414 39.6167 144.311 39.41 144.164 39.23C144.024 39.0433 143.838 38.8933 143.604 38.78C143.371 38.6667 143.088 38.61 142.754 38.61C142.168 38.61 141.708 38.78 141.374 39.12C141.041 39.4533 140.821 39.9367 140.714 40.57H144.574ZM140.674 42.37C140.774 43.2367 141.038 43.8667 141.464 44.26C141.891 44.6467 142.441 44.84 143.114 44.84C143.474 44.84 143.784 44.7967 144.044 44.71C144.304 44.6233 144.534 44.5267 144.734 44.42C144.941 44.3133 145.128 44.2167 145.294 44.13C145.468 44.0433 145.648 44 145.834 44C146.081 44 146.268 44.09 146.394 44.27L147.294 45.38C146.974 45.7467 146.628 46.0467 146.254 46.28C145.888 46.5067 145.508 46.6867 145.114 46.82C144.728 46.9467 144.338 47.0333 143.944 47.08C143.558 47.1333 143.188 47.16 142.834 47.16C142.108 47.16 141.424 47.0433 140.784 46.81C140.151 46.57 139.594 46.2167 139.114 45.75C138.641 45.2833 138.264 44.7033 137.984 44.01C137.711 43.3167 137.574 42.51 137.574 41.59C137.574 40.8967 137.691 40.24 137.924 39.62C138.164 39 138.504 38.4567 138.944 37.99C139.391 37.5233 139.928 37.1533 140.554 36.88C141.188 36.6067 141.901 36.47 142.694 36.47C143.381 36.47 144.008 36.5767 144.574 36.79C145.148 37.0033 145.638 37.3133 146.044 37.72C146.458 38.1267 146.778 38.6267 147.004 39.22C147.238 39.8067 147.354 40.4733 147.354 41.22C147.354 41.4533 147.344 41.6433 147.324 41.79C147.304 41.9367 147.268 42.0533 147.214 42.14C147.161 42.2267 147.088 42.2867 146.994 42.32C146.908 42.3533 146.794 42.37 146.654 42.37H140.674ZM155.495 38.9C155.415 39.0267 155.329 39.1167 155.235 39.17C155.149 39.2233 155.035 39.25 154.895 39.25C154.749 39.25 154.602 39.22 154.455 39.16C154.309 39.0933 154.149 39.0233 153.975 38.95C153.809 38.8767 153.619 38.81 153.405 38.75C153.192 38.6833 152.949 38.65 152.675 38.65C152.282 38.65 151.979 38.7267 151.765 38.88C151.559 39.0267 151.455 39.2333 151.455 39.5C151.455 39.6933 151.522 39.8533 151.655 39.98C151.795 40.1067 151.979 40.22 152.205 40.32C152.432 40.4133 152.689 40.5033 152.975 40.59C153.262 40.6767 153.555 40.7733 153.855 40.88C154.155 40.9867 154.449 41.1133 154.735 41.26C155.022 41.4 155.279 41.5767 155.505 41.79C155.732 41.9967 155.912 42.25 156.045 42.55C156.185 42.85 156.255 43.21 156.255 43.63C156.255 44.1433 156.162 44.6167 155.975 45.05C155.789 45.4833 155.509 45.8567 155.135 46.17C154.769 46.4833 154.312 46.7267 153.765 46.9C153.225 47.0733 152.602 47.16 151.895 47.16C151.542 47.16 151.189 47.1267 150.835 47.06C150.482 46.9933 150.139 46.9033 149.805 46.79C149.479 46.6767 149.175 46.5433 148.895 46.39C148.615 46.23 148.375 46.06 148.175 45.88L148.895 44.74C148.975 44.6067 149.075 44.5033 149.195 44.43C149.322 44.35 149.482 44.31 149.675 44.31C149.855 44.31 150.015 44.35 150.155 44.43C150.302 44.51 150.459 44.5967 150.625 44.69C150.792 44.7833 150.985 44.87 151.205 44.95C151.432 45.03 151.715 45.07 152.055 45.07C152.295 45.07 152.499 45.0467 152.665 45C152.832 44.9467 152.965 44.8767 153.065 44.79C153.165 44.7033 153.239 44.6067 153.285 44.5C153.332 44.3933 153.355 44.2833 153.355 44.17C153.355 43.9633 153.285 43.7933 153.145 43.66C153.005 43.5267 152.822 43.4133 152.595 43.32C152.369 43.22 152.109 43.13 151.815 43.05C151.529 42.9633 151.235 42.8667 150.935 42.76C150.635 42.6533 150.339 42.5267 150.045 42.38C149.759 42.2267 149.502 42.0367 149.275 41.81C149.049 41.5767 148.865 41.2933 148.725 40.96C148.585 40.6267 148.515 40.2233 148.515 39.75C148.515 39.31 148.599 38.8933 148.765 38.5C148.939 38.1 149.195 37.75 149.535 37.45C149.875 37.15 150.302 36.9133 150.815 36.74C151.329 36.56 151.929 36.47 152.615 36.47C152.989 36.47 153.349 36.5033 153.695 36.57C154.049 36.6367 154.379 36.73 154.685 36.85C154.992 36.97 155.272 37.1133 155.525 37.28C155.779 37.44 156.002 37.6167 156.195 37.81L155.495 38.9ZM164.402 38.9C164.322 39.0267 164.235 39.1167 164.142 39.17C164.055 39.2233 163.942 39.25 163.802 39.25C163.655 39.25 163.508 39.22 163.362 39.16C163.215 39.0933 163.055 39.0233 162.882 38.95C162.715 38.8767 162.525 38.81 162.312 38.75C162.098 38.6833 161.855 38.65 161.582 38.65C161.188 38.65 160.885 38.7267 160.672 38.88C160.465 39.0267 160.362 39.2333 160.362 39.5C160.362 39.6933 160.428 39.8533 160.562 39.98C160.702 40.1067 160.885 40.22 161.112 40.32C161.338 40.4133 161.595 40.5033 161.882 40.59C162.168 40.6767 162.462 40.7733 162.762 40.88C163.062 40.9867 163.355 41.1133 163.642 41.26C163.928 41.4 164.185 41.5767 164.412 41.79C164.638 41.9967 164.818 42.25 164.952 42.55C165.092 42.85 165.162 43.21 165.162 43.63C165.162 44.1433 165.068 44.6167 164.882 45.05C164.695 45.4833 164.415 45.8567 164.042 46.17C163.675 46.4833 163.218 46.7267 162.672 46.9C162.132 47.0733 161.508 47.16 160.802 47.16C160.448 47.16 160.095 47.1267 159.742 47.06C159.388 46.9933 159.045 46.9033 158.712 46.79C158.385 46.6767 158.082 46.5433 157.802 46.39C157.522 46.23 157.282 46.06 157.082 45.88L157.802 44.74C157.882 44.6067 157.982 44.5033 158.102 44.43C158.228 44.35 158.388 44.31 158.582 44.31C158.762 44.31 158.922 44.35 159.062 44.43C159.208 44.51 159.365 44.5967 159.532 44.69C159.698 44.7833 159.892 44.87 160.112 44.95C160.338 45.03 160.622 45.07 160.962 45.07C161.202 45.07 161.405 45.0467 161.572 45C161.738 44.9467 161.872 44.8767 161.972 44.79C162.072 44.7033 162.145 44.6067 162.192 44.5C162.238 44.3933 162.262 44.2833 162.262 44.17C162.262 43.9633 162.192 43.7933 162.052 43.66C161.912 43.5267 161.728 43.4133 161.502 43.32C161.275 43.22 161.015 43.13 160.722 43.05C160.435 42.9633 160.142 42.8667 159.842 42.76C159.542 42.6533 159.245 42.5267 158.952 42.38C158.665 42.2267 158.408 42.0367 158.182 41.81C157.955 41.5767 157.772 41.2933 157.632 40.96C157.492 40.6267 157.422 40.2233 157.422 39.75C157.422 39.31 157.505 38.8933 157.672 38.5C157.845 38.1 158.102 37.75 158.442 37.45C158.782 37.15 159.208 36.9133 159.722 36.74C160.235 36.56 160.835 36.47 161.522 36.47C161.895 36.47 162.255 36.5033 162.602 36.57C162.955 36.6367 163.285 36.73 163.592 36.85C163.898 36.97 164.178 37.1133 164.432 37.28C164.685 37.44 164.908 37.6167 165.102 37.81L164.402 38.9Z" fill="white"/>
<circle cx="59.1284" cy="15.1283" r="15.1283" fill="white"/>
<path d="M52.9071 18.8658L51.0045 16.932C50.6333 16.5548 50.025 16.5548 49.6538 16.932C49.291 17.3007 49.291 17.8922 49.6538 18.261L52.8908 21.551C53.6744 22.3474 54.9585 22.3474 55.7421 21.551L63.3409 13.8278C63.6982 13.4646 63.6756 12.8753 63.2914 12.5405C62.9417 12.2359 62.4161 12.2531 62.087 12.5799L55.7422 18.8821C54.9559 19.6631 53.6844 19.6558 52.9071 18.8658Z" fill="black"/>
<circle cx="66.5" cy="9.5" r="1.5" fill="black"/>
</svg>
