<svg width="166" height="61" viewBox="0 0 166 61" fill="none" xmlns="http://www.w3.org/2000/svg">
<mask id="path-1-inside-1_161_3" fill="white">
<path d="M0.00012207 7.99999C0.00012207 5.23856 2.2387 2.99998 5.00012 2.99998L57.1056 2.99998C59.867 2.99998 62.1056 5.23856 62.1056 7.99998L62.1056 49.4891C62.1056 52.2506 59.867 54.4892 57.1056 54.4892H5.00013C2.2387 54.4892 0.00012207 52.2506 0.00012207 49.4892L0.00012207 7.99999Z"/>
</mask>
<path d="M0.00012207 7.99999C0.00012207 5.23856 2.2387 2.99998 5.00012 2.99998L57.1056 2.99998C59.867 2.99998 62.1056 5.23856 62.1056 7.99998L62.1056 49.4891C62.1056 52.2506 59.867 54.4892 57.1056 54.4892H5.00013C2.2387 54.4892 0.00012207 52.2506 0.00012207 49.4892L0.00012207 7.99999Z" fill="white"/>
<path d="M0.00012207 49.4892L-0.999878 49.4892L0.00012207 49.4892ZM62.1056 49.4891L61.1056 49.4891L62.1056 49.4891ZM57.1056 54.4892V53.4892V54.4892ZM62.1056 7.99998H63.1056H62.1056ZM0.00012207 7.99999H1.00012H0.00012207ZM5.00012 3.99998L57.1056 3.99998V1.99998L5.00012 1.99998L5.00012 3.99998ZM61.1056 7.99998L61.1056 49.4891L63.1056 49.4891L63.1056 7.99998L61.1056 7.99998ZM57.1056 53.4892H5.00013L5.00013 55.4892H57.1056V53.4892ZM1.00012 49.4892L1.00012 7.99999L-0.999878 7.99999L-0.999878 49.4892L1.00012 49.4892ZM5.00013 53.4892C2.79099 53.4892 1.00012 51.6983 1.00012 49.4892L-0.999878 49.4892C-0.999878 52.8029 1.68642 55.4892 5.00013 55.4892L5.00013 53.4892ZM61.1056 49.4891C61.1056 51.6983 59.3148 53.4892 57.1056 53.4892V55.4892C60.4193 55.4892 63.1056 52.8029 63.1056 49.4891L61.1056 49.4891ZM57.1056 3.99998C59.3148 3.99998 61.1056 5.79085 61.1056 7.99998H63.1056C63.1056 4.68627 60.4193 1.99998 57.1056 1.99998V3.99998ZM5.00012 1.99998C1.68641 1.99998 -0.999878 4.68628 -0.999878 7.99999H1.00012C1.00012 5.79085 2.79098 3.99998 5.00012 3.99998L5.00012 1.99998Z" fill="black" mask="url(#path-1-inside-1_161_3)"/>
<path d="M8.8927 8.63121H52.6821C55.1674 8.63121 57.1821 10.6459 57.1821 13.1312V45.0657C57.1821 47.551 55.1674 49.5657 52.6821 49.5657H8.89269C6.40741 49.5657 4.3927 47.551 4.3927 45.0657V13.1312C4.3927 10.6459 6.40742 8.63121 8.8927 8.63121Z" fill="black" stroke="black"/>
<rect x="9.34692" y="14.1163" width="7.84694" height="7.84694" rx="1.5" fill="white" stroke="black"/>
<path d="M22.5248 14.1163H27.3717C28.2001 14.1163 28.8717 14.7879 28.8717 15.6163V20.4632C28.8717 21.2917 28.2001 21.9632 27.3717 21.9632H22.5248C21.6964 21.9632 21.0248 21.2917 21.0248 20.4632V15.6163C21.0248 14.7879 21.6964 14.1163 22.5248 14.1163Z" fill="white" stroke="black"/>
<rect x="32.7029" y="14.1163" width="7.84694" height="7.84694" rx="1.5" fill="white" stroke="black"/>
<path d="M45.8807 14.1163H50.7277C51.5561 14.1163 52.2277 14.7879 52.2277 15.6163V20.4632C52.2277 21.2917 51.5561 21.9632 50.7277 21.9632H45.8807C45.0523 21.9632 44.3807 21.2917 44.3807 20.4632V15.6163C44.3807 14.7879 45.0523 14.1163 45.8807 14.1163Z" fill="white" stroke="black"/>
<rect x="9.34692" y="25.0865" width="7.84694" height="7.84694" rx="1.5" fill="white" stroke="black"/>
<path d="M22.5249 25.0865H27.3718C28.2003 25.0865 28.8718 25.7581 28.8718 26.5865V31.4334C28.8718 32.2619 28.2003 32.9334 27.3718 32.9334H22.5249C21.6965 32.9334 21.0249 32.2619 21.0249 31.4334V26.5865C21.0249 25.7581 21.6965 25.0865 22.5249 25.0865Z" fill="white" stroke="black"/>
<rect x="32.7029" y="25.0865" width="7.84694" height="7.84694" rx="1.5" fill="white" stroke="black"/>
<path d="M45.8807 25.0865H50.7277C51.5561 25.0865 52.2277 25.7581 52.2277 26.5865V31.4334C52.2277 32.2619 51.5561 32.9334 50.7277 32.9334H45.8807C45.0523 32.9334 44.3807 32.2619 44.3807 31.4334V26.5865C44.3807 25.7581 45.0523 25.0865 45.8807 25.0865Z" fill="white" stroke="black"/>
<rect x="9.34692" y="36.0567" width="7.84694" height="7.84694" rx="1.5" fill="white" stroke="black"/>
<path d="M22.5249 36.0567H27.3718C28.2003 36.0567 28.8718 36.7283 28.8718 37.5567V42.4036C28.8718 43.2321 28.2003 43.9036 27.3718 43.9036H22.5249C21.6965 43.9036 21.0249 43.2321 21.0249 42.4036V37.5567C21.0249 36.7283 21.6965 36.0567 22.5249 36.0567Z" fill="white" stroke="black"/>
<rect x="32.7029" y="36.0567" width="7.84694" height="7.84694" rx="1.5" fill="white" stroke="black"/>
<path d="M45.8807 36.0567H50.7277C51.5561 36.0567 52.2277 36.7283 52.2277 37.5567V42.4036C52.2277 43.2321 51.5561 43.9036 50.7277 43.9036H45.8807C45.0523 43.9036 44.3807 43.2321 44.3807 42.4036V37.5567C44.3807 36.7283 45.0523 36.0567 45.8807 36.0567Z" fill="white" stroke="black"/>
<rect x="20.2937" y="54.1349" width="21.0952" height="3.14286" fill="white" stroke="black"/>
<rect x="16.1508" y="57.8174" width="29.3809" height="2.68254" rx="1.34127" fill="white" stroke="black"/>
<mask id="path-18-outside-2_161_3" maskUnits="userSpaceOnUse" x="65" y="32" width="102" height="18" fill="black">
<rect fill="white" x="65" y="32" width="102" height="18"/>
<path d="M75.46 36.39C75.36 36.55 75.2533 36.67 75.14 36.75C75.0333 36.83 74.8933 36.87 74.72 36.87C74.5667 36.87 74.4 36.8233 74.22 36.73C74.0467 36.63 73.8467 36.52 73.62 36.4C73.4 36.28 73.1467 36.1733 72.86 36.08C72.5733 35.98 72.2467 35.93 71.88 35.93C71.2467 35.93 70.7733 36.0667 70.46 36.34C70.1533 36.6067 70 36.97 70 37.43C70 37.7233 70.0933 37.9667 70.28 38.16C70.4667 38.3533 70.71 38.52 71.01 38.66C71.3167 38.8 71.6633 38.93 72.05 39.05C72.4433 39.1633 72.8433 39.2933 73.25 39.44C73.6567 39.58 74.0533 39.7467 74.44 39.94C74.8333 40.1333 75.18 40.38 75.48 40.68C75.7867 40.98 76.0333 41.3467 76.22 41.78C76.4067 42.2067 76.5 42.7233 76.5 43.33C76.5 44.0033 76.3833 44.6333 76.15 45.22C75.9167 45.8067 75.5767 46.32 75.13 46.76C74.69 47.1933 74.1433 47.5367 73.49 47.79C72.8433 48.0367 72.1067 48.16 71.28 48.16C70.8267 48.16 70.3633 48.1133 69.89 48.02C69.4233 47.9267 68.97 47.7967 68.53 47.63C68.09 47.4567 67.6767 47.2533 67.29 47.02C66.9033 46.7867 66.5667 46.5267 66.28 46.24L67.28 44.66C67.36 44.5467 67.4633 44.4533 67.59 44.38C67.7233 44.3 67.8667 44.26 68.02 44.26C68.22 44.26 68.42 44.3233 68.62 44.45C68.8267 44.5767 69.0567 44.7167 69.31 44.87C69.57 45.0233 69.8667 45.1633 70.2 45.29C70.5333 45.4167 70.9267 45.48 71.38 45.48C71.9933 45.48 72.47 45.3467 72.81 45.08C73.15 44.8067 73.32 44.3767 73.32 43.79C73.32 43.45 73.2267 43.1733 73.04 42.96C72.8533 42.7467 72.6067 42.57 72.3 42.43C72 42.29 71.6567 42.1667 71.27 42.06C70.8833 41.9533 70.4867 41.8367 70.08 41.71C69.6733 41.5767 69.2767 41.4167 68.89 41.23C68.5033 41.0367 68.1567 40.7867 67.85 40.48C67.55 40.1667 67.3067 39.78 67.12 39.32C66.9333 38.8533 66.84 38.28 66.84 37.6C66.84 37.0533 66.95 36.52 67.17 36C67.39 35.48 67.7133 35.0167 68.14 34.61C68.5667 34.2033 69.09 33.88 69.71 33.64C70.33 33.3933 71.04 33.27 71.84 33.27C72.2867 33.27 72.72 33.3067 73.14 33.38C73.5667 33.4467 73.97 33.55 74.35 33.69C74.73 33.8233 75.0833 33.9867 75.41 34.18C75.7433 34.3667 76.04 34.58 76.3 34.82L75.46 36.39ZM85.7442 40.09C85.6509 40.2033 85.5609 40.2933 85.4742 40.36C85.3876 40.4267 85.2642 40.46 85.1042 40.46C84.9509 40.46 84.8109 40.4233 84.6842 40.35C84.5642 40.2767 84.4276 40.1967 84.2742 40.11C84.1209 40.0167 83.9409 39.9333 83.7342 39.86C83.5276 39.7867 83.2709 39.75 82.9642 39.75C82.5842 39.75 82.2542 39.82 81.9742 39.96C81.7009 40.1 81.4742 40.3 81.2942 40.56C81.1142 40.82 80.9809 41.14 80.8942 41.52C80.8076 41.8933 80.7642 42.3167 80.7642 42.79C80.7642 43.7833 80.9542 44.5467 81.3342 45.08C81.7209 45.6133 82.2509 45.88 82.9242 45.88C83.2842 45.88 83.5676 45.8367 83.7742 45.75C83.9876 45.6567 84.1676 45.5567 84.3142 45.45C84.4609 45.3367 84.5942 45.2333 84.7142 45.14C84.8409 45.0467 84.9976 45 85.1842 45C85.4309 45 85.6176 45.09 85.7442 45.27L86.6442 46.38C86.3242 46.7467 85.9876 47.0467 85.6342 47.28C85.2809 47.5067 84.9176 47.6867 84.5442 47.82C84.1776 47.9467 83.8076 48.0333 83.4342 48.08C83.0609 48.1333 82.6976 48.16 82.3442 48.16C81.7109 48.16 81.1042 48.04 80.5242 47.8C79.9509 47.56 79.4442 47.2133 79.0042 46.76C78.5709 46.3 78.2242 45.7367 77.9642 45.07C77.7109 44.4033 77.5842 43.6433 77.5842 42.79C77.5842 42.0433 77.6942 41.3467 77.9142 40.7C78.1409 40.0467 78.4709 39.4833 78.9042 39.01C79.3442 38.53 79.8842 38.1533 80.5242 37.88C81.1709 37.6067 81.9176 37.47 82.7642 37.47C83.5776 37.47 84.2909 37.6 84.9042 37.86C85.5176 38.12 86.0709 38.5 86.5642 39L85.7442 40.09ZM90.9508 38.54C91.3241 38.22 91.7274 37.9633 92.1608 37.77C92.6008 37.57 93.1241 37.47 93.7308 37.47C94.2974 37.47 94.7974 37.57 95.2308 37.77C95.6708 37.9633 96.0408 38.2367 96.3408 38.59C96.6408 38.9367 96.8674 39.3533 97.0208 39.84C97.1741 40.32 97.2508 40.8433 97.2508 41.41V48H94.1508V41.41C94.1508 40.9033 94.0341 40.51 93.8008 40.23C93.5674 39.9433 93.2241 39.8 92.7708 39.8C92.4308 39.8 92.1108 39.8733 91.8108 40.02C91.5174 40.16 91.2308 40.3533 90.9508 40.6V48H87.8508V33.03H90.9508V38.54ZM105.707 41.57C105.707 41.3233 105.674 41.0833 105.607 40.85C105.547 40.6167 105.444 40.41 105.297 40.23C105.157 40.0433 104.97 39.8933 104.737 39.78C104.504 39.6667 104.22 39.61 103.887 39.61C103.3 39.61 102.84 39.78 102.507 40.12C102.174 40.4533 101.954 40.9367 101.847 41.57H105.707ZM101.807 43.37C101.907 44.2367 102.17 44.8667 102.597 45.26C103.024 45.6467 103.574 45.84 104.247 45.84C104.607 45.84 104.917 45.7967 105.177 45.71C105.437 45.6233 105.667 45.5267 105.867 45.42C106.074 45.3133 106.26 45.2167 106.427 45.13C106.6 45.0433 106.78 45 106.967 45C107.214 45 107.4 45.09 107.527 45.27L108.427 46.38C108.107 46.7467 107.76 47.0467 107.387 47.28C107.02 47.5067 106.64 47.6867 106.247 47.82C105.86 47.9467 105.47 48.0333 105.077 48.08C104.69 48.1333 104.32 48.16 103.967 48.16C103.24 48.16 102.557 48.0433 101.917 47.81C101.284 47.57 100.727 47.2167 100.247 46.75C99.7737 46.2833 99.397 45.7033 99.117 45.01C98.8437 44.3167 98.707 43.51 98.707 42.59C98.707 41.8967 98.8237 41.24 99.057 40.62C99.297 40 99.637 39.4567 100.077 38.99C100.524 38.5233 101.06 38.1533 101.687 37.88C102.32 37.6067 103.034 37.47 103.827 37.47C104.514 37.47 105.14 37.5767 105.707 37.79C106.28 38.0033 106.77 38.3133 107.177 38.72C107.59 39.1267 107.91 39.6267 108.137 40.22C108.37 40.8067 108.487 41.4733 108.487 42.22C108.487 42.4533 108.477 42.6433 108.457 42.79C108.437 42.9367 108.4 43.0533 108.347 43.14C108.294 43.2267 108.22 43.2867 108.127 43.32C108.04 43.3533 107.927 43.37 107.787 43.37H101.807ZM116.328 40.41C116.095 40.15 115.842 39.97 115.568 39.87C115.295 39.7633 115.008 39.71 114.708 39.71C114.422 39.71 114.158 39.7667 113.918 39.88C113.678 39.9933 113.468 40.1767 113.288 40.43C113.115 40.6767 112.978 41 112.878 41.4C112.778 41.8 112.728 42.2833 112.728 42.85C112.728 43.3967 112.768 43.8567 112.848 44.23C112.928 44.6033 113.038 44.9067 113.178 45.14C113.325 45.3667 113.498 45.53 113.698 45.63C113.898 45.73 114.122 45.78 114.368 45.78C114.595 45.78 114.798 45.76 114.978 45.72C115.165 45.6733 115.335 45.61 115.488 45.53C115.642 45.45 115.785 45.35 115.918 45.23C116.058 45.1033 116.195 44.96 116.328 44.8V40.41ZM119.428 33.03V48H117.508C117.122 48 116.868 47.8267 116.748 47.48L116.508 46.69C116.302 46.91 116.085 47.11 115.858 47.29C115.632 47.47 115.385 47.6267 115.118 47.76C114.858 47.8867 114.575 47.9833 114.268 48.05C113.968 48.1233 113.642 48.16 113.288 48.16C112.748 48.16 112.248 48.04 111.788 47.8C111.328 47.56 110.932 47.2133 110.598 46.76C110.265 46.3067 110.002 45.7533 109.808 45.1C109.622 44.44 109.528 43.69 109.528 42.85C109.528 42.0767 109.635 41.36 109.848 40.7C110.062 40.0333 110.362 39.46 110.748 38.98C111.142 38.4933 111.612 38.1133 112.158 37.84C112.705 37.5667 113.308 37.43 113.968 37.43C114.508 37.43 114.962 37.5067 115.328 37.66C115.695 37.8133 116.028 38.02 116.328 38.28V33.03H119.428ZM130.823 37.63V48H128.903C128.516 48 128.263 47.8267 128.143 47.48L127.963 46.88C127.763 47.0733 127.556 47.25 127.343 47.41C127.129 47.5633 126.899 47.6967 126.653 47.81C126.413 47.9167 126.149 48 125.863 48.06C125.583 48.1267 125.276 48.16 124.943 48.16C124.376 48.16 123.873 48.0633 123.433 47.87C122.999 47.67 122.633 47.3933 122.333 47.04C122.033 46.6867 121.806 46.27 121.653 45.79C121.499 45.31 121.423 44.7833 121.423 44.21V37.63H124.523V44.21C124.523 44.7233 124.639 45.12 124.873 45.4C125.106 45.68 125.449 45.82 125.903 45.82C126.243 45.82 126.559 45.75 126.853 45.61C127.153 45.4633 127.443 45.2667 127.723 45.02V37.63H130.823ZM136.029 33.03V48H132.929V33.03H136.029ZM144.574 41.57C144.574 41.3233 144.541 41.0833 144.474 40.85C144.414 40.6167 144.311 40.41 144.164 40.23C144.024 40.0433 143.838 39.8933 143.604 39.78C143.371 39.6667 143.088 39.61 142.754 39.61C142.168 39.61 141.708 39.78 141.374 40.12C141.041 40.4533 140.821 40.9367 140.714 41.57H144.574ZM140.674 43.37C140.774 44.2367 141.038 44.8667 141.464 45.26C141.891 45.6467 142.441 45.84 143.114 45.84C143.474 45.84 143.784 45.7967 144.044 45.71C144.304 45.6233 144.534 45.5267 144.734 45.42C144.941 45.3133 145.128 45.2167 145.294 45.13C145.468 45.0433 145.648 45 145.834 45C146.081 45 146.268 45.09 146.394 45.27L147.294 46.38C146.974 46.7467 146.628 47.0467 146.254 47.28C145.888 47.5067 145.508 47.6867 145.114 47.82C144.728 47.9467 144.338 48.0333 143.944 48.08C143.558 48.1333 143.188 48.16 142.834 48.16C142.108 48.16 141.424 48.0433 140.784 47.81C140.151 47.57 139.594 47.2167 139.114 46.75C138.641 46.2833 138.264 45.7033 137.984 45.01C137.711 44.3167 137.574 43.51 137.574 42.59C137.574 41.8967 137.691 41.24 137.924 40.62C138.164 40 138.504 39.4567 138.944 38.99C139.391 38.5233 139.928 38.1533 140.554 37.88C141.188 37.6067 141.901 37.47 142.694 37.47C143.381 37.47 144.008 37.5767 144.574 37.79C145.148 38.0033 145.638 38.3133 146.044 38.72C146.458 39.1267 146.778 39.6267 147.004 40.22C147.238 40.8067 147.354 41.4733 147.354 42.22C147.354 42.4533 147.344 42.6433 147.324 42.79C147.304 42.9367 147.268 43.0533 147.214 43.14C147.161 43.2267 147.088 43.2867 146.994 43.32C146.908 43.3533 146.794 43.37 146.654 43.37H140.674ZM155.495 39.9C155.415 40.0267 155.329 40.1167 155.235 40.17C155.149 40.2233 155.035 40.25 154.895 40.25C154.749 40.25 154.602 40.22 154.455 40.16C154.309 40.0933 154.149 40.0233 153.975 39.95C153.809 39.8767 153.619 39.81 153.405 39.75C153.192 39.6833 152.949 39.65 152.675 39.65C152.282 39.65 151.979 39.7267 151.765 39.88C151.559 40.0267 151.455 40.2333 151.455 40.5C151.455 40.6933 151.522 40.8533 151.655 40.98C151.795 41.1067 151.979 41.22 152.205 41.32C152.432 41.4133 152.689 41.5033 152.975 41.59C153.262 41.6767 153.555 41.7733 153.855 41.88C154.155 41.9867 154.449 42.1133 154.735 42.26C155.022 42.4 155.279 42.5767 155.505 42.79C155.732 42.9967 155.912 43.25 156.045 43.55C156.185 43.85 156.255 44.21 156.255 44.63C156.255 45.1433 156.162 45.6167 155.975 46.05C155.789 46.4833 155.509 46.8567 155.135 47.17C154.769 47.4833 154.312 47.7267 153.765 47.9C153.225 48.0733 152.602 48.16 151.895 48.16C151.542 48.16 151.189 48.1267 150.835 48.06C150.482 47.9933 150.139 47.9033 149.805 47.79C149.479 47.6767 149.175 47.5433 148.895 47.39C148.615 47.23 148.375 47.06 148.175 46.88L148.895 45.74C148.975 45.6067 149.075 45.5033 149.195 45.43C149.322 45.35 149.482 45.31 149.675 45.31C149.855 45.31 150.015 45.35 150.155 45.43C150.302 45.51 150.459 45.5967 150.625 45.69C150.792 45.7833 150.985 45.87 151.205 45.95C151.432 46.03 151.715 46.07 152.055 46.07C152.295 46.07 152.499 46.0467 152.665 46C152.832 45.9467 152.965 45.8767 153.065 45.79C153.165 45.7033 153.239 45.6067 153.285 45.5C153.332 45.3933 153.355 45.2833 153.355 45.17C153.355 44.9633 153.285 44.7933 153.145 44.66C153.005 44.5267 152.822 44.4133 152.595 44.32C152.369 44.22 152.109 44.13 151.815 44.05C151.529 43.9633 151.235 43.8667 150.935 43.76C150.635 43.6533 150.339 43.5267 150.045 43.38C149.759 43.2267 149.502 43.0367 149.275 42.81C149.049 42.5767 148.865 42.2933 148.725 41.96C148.585 41.6267 148.515 41.2233 148.515 40.75C148.515 40.31 148.599 39.8933 148.765 39.5C148.939 39.1 149.195 38.75 149.535 38.45C149.875 38.15 150.302 37.9133 150.815 37.74C151.329 37.56 151.929 37.47 152.615 37.47C152.989 37.47 153.349 37.5033 153.695 37.57C154.049 37.6367 154.379 37.73 154.685 37.85C154.992 37.97 155.272 38.1133 155.525 38.28C155.779 38.44 156.002 38.6167 156.195 38.81L155.495 39.9ZM164.402 39.9C164.322 40.0267 164.235 40.1167 164.142 40.17C164.055 40.2233 163.942 40.25 163.802 40.25C163.655 40.25 163.508 40.22 163.362 40.16C163.215 40.0933 163.055 40.0233 162.882 39.95C162.715 39.8767 162.525 39.81 162.312 39.75C162.098 39.6833 161.855 39.65 161.582 39.65C161.188 39.65 160.885 39.7267 160.672 39.88C160.465 40.0267 160.362 40.2333 160.362 40.5C160.362 40.6933 160.428 40.8533 160.562 40.98C160.702 41.1067 160.885 41.22 161.112 41.32C161.338 41.4133 161.595 41.5033 161.882 41.59C162.168 41.6767 162.462 41.7733 162.762 41.88C163.062 41.9867 163.355 42.1133 163.642 42.26C163.928 42.4 164.185 42.5767 164.412 42.79C164.638 42.9967 164.818 43.25 164.952 43.55C165.092 43.85 165.162 44.21 165.162 44.63C165.162 45.1433 165.068 45.6167 164.882 46.05C164.695 46.4833 164.415 46.8567 164.042 47.17C163.675 47.4833 163.218 47.7267 162.672 47.9C162.132 48.0733 161.508 48.16 160.802 48.16C160.448 48.16 160.095 48.1267 159.742 48.06C159.388 47.9933 159.045 47.9033 158.712 47.79C158.385 47.6767 158.082 47.5433 157.802 47.39C157.522 47.23 157.282 47.06 157.082 46.88L157.802 45.74C157.882 45.6067 157.982 45.5033 158.102 45.43C158.228 45.35 158.388 45.31 158.582 45.31C158.762 45.31 158.922 45.35 159.062 45.43C159.208 45.51 159.365 45.5967 159.532 45.69C159.698 45.7833 159.892 45.87 160.112 45.95C160.338 46.03 160.622 46.07 160.962 46.07C161.202 46.07 161.405 46.0467 161.572 46C161.738 45.9467 161.872 45.8767 161.972 45.79C162.072 45.7033 162.145 45.6067 162.192 45.5C162.238 45.3933 162.262 45.2833 162.262 45.17C162.262 44.9633 162.192 44.7933 162.052 44.66C161.912 44.5267 161.728 44.4133 161.502 44.32C161.275 44.22 161.015 44.13 160.722 44.05C160.435 43.9633 160.142 43.8667 159.842 43.76C159.542 43.6533 159.245 43.5267 158.952 43.38C158.665 43.2267 158.408 43.0367 158.182 42.81C157.955 42.5767 157.772 42.2933 157.632 41.96C157.492 41.6267 157.422 41.2233 157.422 40.75C157.422 40.31 157.505 39.8933 157.672 39.5C157.845 39.1 158.102 38.75 158.442 38.45C158.782 38.15 159.208 37.9133 159.722 37.74C160.235 37.56 160.835 37.47 161.522 37.47C161.895 37.47 162.255 37.5033 162.602 37.57C162.955 37.6367 163.285 37.73 163.592 37.85C163.898 37.97 164.178 38.1133 164.432 38.28C164.685 38.44 164.908 38.6167 165.102 38.81L164.402 39.9Z"/>
</mask>
<path d="M75.46 36.39C75.36 36.55 75.2533 36.67 75.14 36.75C75.0333 36.83 74.8933 36.87 74.72 36.87C74.5667 36.87 74.4 36.8233 74.22 36.73C74.0467 36.63 73.8467 36.52 73.62 36.4C73.4 36.28 73.1467 36.1733 72.86 36.08C72.5733 35.98 72.2467 35.93 71.88 35.93C71.2467 35.93 70.7733 36.0667 70.46 36.34C70.1533 36.6067 70 36.97 70 37.43C70 37.7233 70.0933 37.9667 70.28 38.16C70.4667 38.3533 70.71 38.52 71.01 38.66C71.3167 38.8 71.6633 38.93 72.05 39.05C72.4433 39.1633 72.8433 39.2933 73.25 39.44C73.6567 39.58 74.0533 39.7467 74.44 39.94C74.8333 40.1333 75.18 40.38 75.48 40.68C75.7867 40.98 76.0333 41.3467 76.22 41.78C76.4067 42.2067 76.5 42.7233 76.5 43.33C76.5 44.0033 76.3833 44.6333 76.15 45.22C75.9167 45.8067 75.5767 46.32 75.13 46.76C74.69 47.1933 74.1433 47.5367 73.49 47.79C72.8433 48.0367 72.1067 48.16 71.28 48.16C70.8267 48.16 70.3633 48.1133 69.89 48.02C69.4233 47.9267 68.97 47.7967 68.53 47.63C68.09 47.4567 67.6767 47.2533 67.29 47.02C66.9033 46.7867 66.5667 46.5267 66.28 46.24L67.28 44.66C67.36 44.5467 67.4633 44.4533 67.59 44.38C67.7233 44.3 67.8667 44.26 68.02 44.26C68.22 44.26 68.42 44.3233 68.62 44.45C68.8267 44.5767 69.0567 44.7167 69.31 44.87C69.57 45.0233 69.8667 45.1633 70.2 45.29C70.5333 45.4167 70.9267 45.48 71.38 45.48C71.9933 45.48 72.47 45.3467 72.81 45.08C73.15 44.8067 73.32 44.3767 73.32 43.79C73.32 43.45 73.2267 43.1733 73.04 42.96C72.8533 42.7467 72.6067 42.57 72.3 42.43C72 42.29 71.6567 42.1667 71.27 42.06C70.8833 41.9533 70.4867 41.8367 70.08 41.71C69.6733 41.5767 69.2767 41.4167 68.89 41.23C68.5033 41.0367 68.1567 40.7867 67.85 40.48C67.55 40.1667 67.3067 39.78 67.12 39.32C66.9333 38.8533 66.84 38.28 66.84 37.6C66.84 37.0533 66.95 36.52 67.17 36C67.39 35.48 67.7133 35.0167 68.14 34.61C68.5667 34.2033 69.09 33.88 69.71 33.64C70.33 33.3933 71.04 33.27 71.84 33.27C72.2867 33.27 72.72 33.3067 73.14 33.38C73.5667 33.4467 73.97 33.55 74.35 33.69C74.73 33.8233 75.0833 33.9867 75.41 34.18C75.7433 34.3667 76.04 34.58 76.3 34.82L75.46 36.39ZM85.7442 40.09C85.6509 40.2033 85.5609 40.2933 85.4742 40.36C85.3876 40.4267 85.2642 40.46 85.1042 40.46C84.9509 40.46 84.8109 40.4233 84.6842 40.35C84.5642 40.2767 84.4276 40.1967 84.2742 40.11C84.1209 40.0167 83.9409 39.9333 83.7342 39.86C83.5276 39.7867 83.2709 39.75 82.9642 39.75C82.5842 39.75 82.2542 39.82 81.9742 39.96C81.7009 40.1 81.4742 40.3 81.2942 40.56C81.1142 40.82 80.9809 41.14 80.8942 41.52C80.8076 41.8933 80.7642 42.3167 80.7642 42.79C80.7642 43.7833 80.9542 44.5467 81.3342 45.08C81.7209 45.6133 82.2509 45.88 82.9242 45.88C83.2842 45.88 83.5676 45.8367 83.7742 45.75C83.9876 45.6567 84.1676 45.5567 84.3142 45.45C84.4609 45.3367 84.5942 45.2333 84.7142 45.14C84.8409 45.0467 84.9976 45 85.1842 45C85.4309 45 85.6176 45.09 85.7442 45.27L86.6442 46.38C86.3242 46.7467 85.9876 47.0467 85.6342 47.28C85.2809 47.5067 84.9176 47.6867 84.5442 47.82C84.1776 47.9467 83.8076 48.0333 83.4342 48.08C83.0609 48.1333 82.6976 48.16 82.3442 48.16C81.7109 48.16 81.1042 48.04 80.5242 47.8C79.9509 47.56 79.4442 47.2133 79.0042 46.76C78.5709 46.3 78.2242 45.7367 77.9642 45.07C77.7109 44.4033 77.5842 43.6433 77.5842 42.79C77.5842 42.0433 77.6942 41.3467 77.9142 40.7C78.1409 40.0467 78.4709 39.4833 78.9042 39.01C79.3442 38.53 79.8842 38.1533 80.5242 37.88C81.1709 37.6067 81.9176 37.47 82.7642 37.47C83.5776 37.47 84.2909 37.6 84.9042 37.86C85.5176 38.12 86.0709 38.5 86.5642 39L85.7442 40.09ZM90.9508 38.54C91.3241 38.22 91.7274 37.9633 92.1608 37.77C92.6008 37.57 93.1241 37.47 93.7308 37.47C94.2974 37.47 94.7974 37.57 95.2308 37.77C95.6708 37.9633 96.0408 38.2367 96.3408 38.59C96.6408 38.9367 96.8674 39.3533 97.0208 39.84C97.1741 40.32 97.2508 40.8433 97.2508 41.41V48H94.1508V41.41C94.1508 40.9033 94.0341 40.51 93.8008 40.23C93.5674 39.9433 93.2241 39.8 92.7708 39.8C92.4308 39.8 92.1108 39.8733 91.8108 40.02C91.5174 40.16 91.2308 40.3533 90.9508 40.6V48H87.8508V33.03H90.9508V38.54ZM105.707 41.57C105.707 41.3233 105.674 41.0833 105.607 40.85C105.547 40.6167 105.444 40.41 105.297 40.23C105.157 40.0433 104.97 39.8933 104.737 39.78C104.504 39.6667 104.22 39.61 103.887 39.61C103.3 39.61 102.84 39.78 102.507 40.12C102.174 40.4533 101.954 40.9367 101.847 41.57H105.707ZM101.807 43.37C101.907 44.2367 102.17 44.8667 102.597 45.26C103.024 45.6467 103.574 45.84 104.247 45.84C104.607 45.84 104.917 45.7967 105.177 45.71C105.437 45.6233 105.667 45.5267 105.867 45.42C106.074 45.3133 106.26 45.2167 106.427 45.13C106.6 45.0433 106.78 45 106.967 45C107.214 45 107.4 45.09 107.527 45.27L108.427 46.38C108.107 46.7467 107.76 47.0467 107.387 47.28C107.02 47.5067 106.64 47.6867 106.247 47.82C105.86 47.9467 105.47 48.0333 105.077 48.08C104.69 48.1333 104.32 48.16 103.967 48.16C103.24 48.16 102.557 48.0433 101.917 47.81C101.284 47.57 100.727 47.2167 100.247 46.75C99.7737 46.2833 99.397 45.7033 99.117 45.01C98.8437 44.3167 98.707 43.51 98.707 42.59C98.707 41.8967 98.8237 41.24 99.057 40.62C99.297 40 99.637 39.4567 100.077 38.99C100.524 38.5233 101.06 38.1533 101.687 37.88C102.32 37.6067 103.034 37.47 103.827 37.47C104.514 37.47 105.14 37.5767 105.707 37.79C106.28 38.0033 106.77 38.3133 107.177 38.72C107.59 39.1267 107.91 39.6267 108.137 40.22C108.37 40.8067 108.487 41.4733 108.487 42.22C108.487 42.4533 108.477 42.6433 108.457 42.79C108.437 42.9367 108.4 43.0533 108.347 43.14C108.294 43.2267 108.22 43.2867 108.127 43.32C108.04 43.3533 107.927 43.37 107.787 43.37H101.807ZM116.328 40.41C116.095 40.15 115.842 39.97 115.568 39.87C115.295 39.7633 115.008 39.71 114.708 39.71C114.422 39.71 114.158 39.7667 113.918 39.88C113.678 39.9933 113.468 40.1767 113.288 40.43C113.115 40.6767 112.978 41 112.878 41.4C112.778 41.8 112.728 42.2833 112.728 42.85C112.728 43.3967 112.768 43.8567 112.848 44.23C112.928 44.6033 113.038 44.9067 113.178 45.14C113.325 45.3667 113.498 45.53 113.698 45.63C113.898 45.73 114.122 45.78 114.368 45.78C114.595 45.78 114.798 45.76 114.978 45.72C115.165 45.6733 115.335 45.61 115.488 45.53C115.642 45.45 115.785 45.35 115.918 45.23C116.058 45.1033 116.195 44.96 116.328 44.8V40.41ZM119.428 33.03V48H117.508C117.122 48 116.868 47.8267 116.748 47.48L116.508 46.69C116.302 46.91 116.085 47.11 115.858 47.29C115.632 47.47 115.385 47.6267 115.118 47.76C114.858 47.8867 114.575 47.9833 114.268 48.05C113.968 48.1233 113.642 48.16 113.288 48.16C112.748 48.16 112.248 48.04 111.788 47.8C111.328 47.56 110.932 47.2133 110.598 46.76C110.265 46.3067 110.002 45.7533 109.808 45.1C109.622 44.44 109.528 43.69 109.528 42.85C109.528 42.0767 109.635 41.36 109.848 40.7C110.062 40.0333 110.362 39.46 110.748 38.98C111.142 38.4933 111.612 38.1133 112.158 37.84C112.705 37.5667 113.308 37.43 113.968 37.43C114.508 37.43 114.962 37.5067 115.328 37.66C115.695 37.8133 116.028 38.02 116.328 38.28V33.03H119.428ZM130.823 37.63V48H128.903C128.516 48 128.263 47.8267 128.143 47.48L127.963 46.88C127.763 47.0733 127.556 47.25 127.343 47.41C127.129 47.5633 126.899 47.6967 126.653 47.81C126.413 47.9167 126.149 48 125.863 48.06C125.583 48.1267 125.276 48.16 124.943 48.16C124.376 48.16 123.873 48.0633 123.433 47.87C122.999 47.67 122.633 47.3933 122.333 47.04C122.033 46.6867 121.806 46.27 121.653 45.79C121.499 45.31 121.423 44.7833 121.423 44.21V37.63H124.523V44.21C124.523 44.7233 124.639 45.12 124.873 45.4C125.106 45.68 125.449 45.82 125.903 45.82C126.243 45.82 126.559 45.75 126.853 45.61C127.153 45.4633 127.443 45.2667 127.723 45.02V37.63H130.823ZM136.029 33.03V48H132.929V33.03H136.029ZM144.574 41.57C144.574 41.3233 144.541 41.0833 144.474 40.85C144.414 40.6167 144.311 40.41 144.164 40.23C144.024 40.0433 143.838 39.8933 143.604 39.78C143.371 39.6667 143.088 39.61 142.754 39.61C142.168 39.61 141.708 39.78 141.374 40.12C141.041 40.4533 140.821 40.9367 140.714 41.57H144.574ZM140.674 43.37C140.774 44.2367 141.038 44.8667 141.464 45.26C141.891 45.6467 142.441 45.84 143.114 45.84C143.474 45.84 143.784 45.7967 144.044 45.71C144.304 45.6233 144.534 45.5267 144.734 45.42C144.941 45.3133 145.128 45.2167 145.294 45.13C145.468 45.0433 145.648 45 145.834 45C146.081 45 146.268 45.09 146.394 45.27L147.294 46.38C146.974 46.7467 146.628 47.0467 146.254 47.28C145.888 47.5067 145.508 47.6867 145.114 47.82C144.728 47.9467 144.338 48.0333 143.944 48.08C143.558 48.1333 143.188 48.16 142.834 48.16C142.108 48.16 141.424 48.0433 140.784 47.81C140.151 47.57 139.594 47.2167 139.114 46.75C138.641 46.2833 138.264 45.7033 137.984 45.01C137.711 44.3167 137.574 43.51 137.574 42.59C137.574 41.8967 137.691 41.24 137.924 40.62C138.164 40 138.504 39.4567 138.944 38.99C139.391 38.5233 139.928 38.1533 140.554 37.88C141.188 37.6067 141.901 37.47 142.694 37.47C143.381 37.47 144.008 37.5767 144.574 37.79C145.148 38.0033 145.638 38.3133 146.044 38.72C146.458 39.1267 146.778 39.6267 147.004 40.22C147.238 40.8067 147.354 41.4733 147.354 42.22C147.354 42.4533 147.344 42.6433 147.324 42.79C147.304 42.9367 147.268 43.0533 147.214 43.14C147.161 43.2267 147.088 43.2867 146.994 43.32C146.908 43.3533 146.794 43.37 146.654 43.37H140.674ZM155.495 39.9C155.415 40.0267 155.329 40.1167 155.235 40.17C155.149 40.2233 155.035 40.25 154.895 40.25C154.749 40.25 154.602 40.22 154.455 40.16C154.309 40.0933 154.149 40.0233 153.975 39.95C153.809 39.8767 153.619 39.81 153.405 39.75C153.192 39.6833 152.949 39.65 152.675 39.65C152.282 39.65 151.979 39.7267 151.765 39.88C151.559 40.0267 151.455 40.2333 151.455 40.5C151.455 40.6933 151.522 40.8533 151.655 40.98C151.795 41.1067 151.979 41.22 152.205 41.32C152.432 41.4133 152.689 41.5033 152.975 41.59C153.262 41.6767 153.555 41.7733 153.855 41.88C154.155 41.9867 154.449 42.1133 154.735 42.26C155.022 42.4 155.279 42.5767 155.505 42.79C155.732 42.9967 155.912 43.25 156.045 43.55C156.185 43.85 156.255 44.21 156.255 44.63C156.255 45.1433 156.162 45.6167 155.975 46.05C155.789 46.4833 155.509 46.8567 155.135 47.17C154.769 47.4833 154.312 47.7267 153.765 47.9C153.225 48.0733 152.602 48.16 151.895 48.16C151.542 48.16 151.189 48.1267 150.835 48.06C150.482 47.9933 150.139 47.9033 149.805 47.79C149.479 47.6767 149.175 47.5433 148.895 47.39C148.615 47.23 148.375 47.06 148.175 46.88L148.895 45.74C148.975 45.6067 149.075 45.5033 149.195 45.43C149.322 45.35 149.482 45.31 149.675 45.31C149.855 45.31 150.015 45.35 150.155 45.43C150.302 45.51 150.459 45.5967 150.625 45.69C150.792 45.7833 150.985 45.87 151.205 45.95C151.432 46.03 151.715 46.07 152.055 46.07C152.295 46.07 152.499 46.0467 152.665 46C152.832 45.9467 152.965 45.8767 153.065 45.79C153.165 45.7033 153.239 45.6067 153.285 45.5C153.332 45.3933 153.355 45.2833 153.355 45.17C153.355 44.9633 153.285 44.7933 153.145 44.66C153.005 44.5267 152.822 44.4133 152.595 44.32C152.369 44.22 152.109 44.13 151.815 44.05C151.529 43.9633 151.235 43.8667 150.935 43.76C150.635 43.6533 150.339 43.5267 150.045 43.38C149.759 43.2267 149.502 43.0367 149.275 42.81C149.049 42.5767 148.865 42.2933 148.725 41.96C148.585 41.6267 148.515 41.2233 148.515 40.75C148.515 40.31 148.599 39.8933 148.765 39.5C148.939 39.1 149.195 38.75 149.535 38.45C149.875 38.15 150.302 37.9133 150.815 37.74C151.329 37.56 151.929 37.47 152.615 37.47C152.989 37.47 153.349 37.5033 153.695 37.57C154.049 37.6367 154.379 37.73 154.685 37.85C154.992 37.97 155.272 38.1133 155.525 38.28C155.779 38.44 156.002 38.6167 156.195 38.81L155.495 39.9ZM164.402 39.9C164.322 40.0267 164.235 40.1167 164.142 40.17C164.055 40.2233 163.942 40.25 163.802 40.25C163.655 40.25 163.508 40.22 163.362 40.16C163.215 40.0933 163.055 40.0233 162.882 39.95C162.715 39.8767 162.525 39.81 162.312 39.75C162.098 39.6833 161.855 39.65 161.582 39.65C161.188 39.65 160.885 39.7267 160.672 39.88C160.465 40.0267 160.362 40.2333 160.362 40.5C160.362 40.6933 160.428 40.8533 160.562 40.98C160.702 41.1067 160.885 41.22 161.112 41.32C161.338 41.4133 161.595 41.5033 161.882 41.59C162.168 41.6767 162.462 41.7733 162.762 41.88C163.062 41.9867 163.355 42.1133 163.642 42.26C163.928 42.4 164.185 42.5767 164.412 42.79C164.638 42.9967 164.818 43.25 164.952 43.55C165.092 43.85 165.162 44.21 165.162 44.63C165.162 45.1433 165.068 45.6167 164.882 46.05C164.695 46.4833 164.415 46.8567 164.042 47.17C163.675 47.4833 163.218 47.7267 162.672 47.9C162.132 48.0733 161.508 48.16 160.802 48.16C160.448 48.16 160.095 48.1267 159.742 48.06C159.388 47.9933 159.045 47.9033 158.712 47.79C158.385 47.6767 158.082 47.5433 157.802 47.39C157.522 47.23 157.282 47.06 157.082 46.88L157.802 45.74C157.882 45.6067 157.982 45.5033 158.102 45.43C158.228 45.35 158.388 45.31 158.582 45.31C158.762 45.31 158.922 45.35 159.062 45.43C159.208 45.51 159.365 45.5967 159.532 45.69C159.698 45.7833 159.892 45.87 160.112 45.95C160.338 46.03 160.622 46.07 160.962 46.07C161.202 46.07 161.405 46.0467 161.572 46C161.738 45.9467 161.872 45.8767 161.972 45.79C162.072 45.7033 162.145 45.6067 162.192 45.5C162.238 45.3933 162.262 45.2833 162.262 45.17C162.262 44.9633 162.192 44.7933 162.052 44.66C161.912 44.5267 161.728 44.4133 161.502 44.32C161.275 44.22 161.015 44.13 160.722 44.05C160.435 43.9633 160.142 43.8667 159.842 43.76C159.542 43.6533 159.245 43.5267 158.952 43.38C158.665 43.2267 158.408 43.0367 158.182 42.81C157.955 42.5767 157.772 42.2933 157.632 41.96C157.492 41.6267 157.422 41.2233 157.422 40.75C157.422 40.31 157.505 39.8933 157.672 39.5C157.845 39.1 158.102 38.75 158.442 38.45C158.782 38.15 159.208 37.9133 159.722 37.74C160.235 37.56 160.835 37.47 161.522 37.47C161.895 37.47 162.255 37.5033 162.602 37.57C162.955 37.6367 163.285 37.73 163.592 37.85C163.898 37.97 164.178 38.1133 164.432 38.28C164.685 38.44 164.908 38.6167 165.102 38.81L164.402 39.9Z" fill="white"/>
<path d="M75.46 36.39L76.308 36.92L76.3258 36.8914L76.3417 36.8617L75.46 36.39ZM75.14 36.75L74.5633 35.933L74.5515 35.9413L74.54 35.95L75.14 36.75ZM74.22 36.73L73.7203 37.5962L73.7397 37.6074L73.7597 37.6177L74.22 36.73ZM73.62 36.4L73.1411 37.2779L73.1521 37.2838L73.62 36.4ZM72.86 36.08L72.5306 37.0242L72.5405 37.0276L72.5504 37.0309L72.86 36.08ZM70.46 36.34L71.1162 37.0946L71.1174 37.0936L70.46 36.34ZM70.28 38.16L70.9994 37.4654L70.9994 37.4654L70.28 38.16ZM71.01 38.66L70.5871 39.5662L70.5947 39.5697L71.01 38.66ZM72.05 39.05L71.7536 40.005L71.7633 40.0081L71.7731 40.0109L72.05 39.05ZM73.25 39.44L72.9107 40.3807L72.9176 40.3831L72.9245 40.3855L73.25 39.44ZM74.44 39.94L73.9928 40.8344L73.9989 40.8374L74.44 39.94ZM75.48 40.68L74.7729 41.3871L74.7807 41.3948L75.48 40.68ZM76.22 41.78L75.3016 42.1756L75.3038 42.1808L76.22 41.78ZM76.15 45.22L77.0792 45.5896L77.0792 45.5896L76.15 45.22ZM75.13 46.76L75.8317 47.4725L75.8318 47.4724L75.13 46.76ZM73.49 47.79L73.8464 48.7243L73.8515 48.7223L73.49 47.79ZM69.89 48.02L69.6939 49.0006L69.6965 49.0011L69.89 48.02ZM68.53 47.63L68.1634 48.5605L68.1758 48.5651L68.53 47.63ZM67.29 47.02L67.8067 46.1638L67.8067 46.1638L67.29 47.02ZM66.28 46.24L65.435 45.7052L65.0071 46.3813L65.5729 46.9471L66.28 46.24ZM67.28 44.66L66.463 44.0833L66.4485 44.1039L66.435 44.1252L67.28 44.66ZM67.59 44.38L68.091 45.2454L68.0978 45.2415L68.1045 45.2375L67.59 44.38ZM68.62 44.45L68.0849 45.2948L68.0912 45.2987L68.0974 45.3026L68.62 44.45ZM69.31 44.87L68.7922 45.7255L68.802 45.7314L69.31 44.87ZM70.2 45.29L70.5552 44.3552L70.5552 44.3552L70.2 45.29ZM72.81 45.08L73.4272 45.8669L73.4366 45.8594L72.81 45.08ZM73.04 42.96L72.2874 43.6185L72.2874 43.6185L73.04 42.96ZM72.3 42.43L71.8771 43.3362L71.8847 43.3397L72.3 42.43ZM71.27 42.06L71.5359 41.096L71.5359 41.096L71.27 42.06ZM70.08 41.71L69.7684 42.6602L69.7755 42.6625L69.7826 42.6647L70.08 41.71ZM68.89 41.23L68.4427 42.1245L68.4553 42.1305L68.89 41.23ZM67.85 40.48L67.1277 41.1716L67.1352 41.1794L67.1429 41.1871L67.85 40.48ZM67.12 39.32L66.1915 39.6914L66.1934 39.696L67.12 39.32ZM67.17 36L68.091 36.3896L68.091 36.3896L67.17 36ZM69.71 33.64L70.071 34.5726L70.0797 34.5691L69.71 33.64ZM73.14 33.38L72.968 34.3651L72.9768 34.3666L72.9856 34.368L73.14 33.38ZM74.35 33.69L74.0043 34.6283L74.0116 34.631L74.0189 34.6336L74.35 33.69ZM75.41 34.18L74.9007 35.0406L74.911 35.0466L74.9214 35.0525L75.41 34.18ZM76.3 34.82L77.1817 35.2917L77.5466 34.6098L76.9783 34.0852L76.3 34.82ZM74.612 35.86C74.5867 35.9005 74.5679 35.924 74.5576 35.9356C74.5474 35.9471 74.5485 35.9435 74.5633 35.933L75.7167 37.567C75.9702 37.388 76.1614 37.1546 76.308 36.92L74.612 35.86ZM74.54 35.95C74.6521 35.8659 74.742 35.87 74.72 35.87V37.87C75.0447 37.87 75.4146 37.794 75.74 37.55L74.54 35.95ZM74.72 35.87C74.7453 35.87 74.7563 35.8739 74.7496 35.872C74.7424 35.87 74.7196 35.8626 74.6803 35.8422L73.7597 37.6177C74.0378 37.762 74.3632 37.87 74.72 37.87V35.87ZM74.7197 35.8638C74.5335 35.7563 74.3225 35.6404 74.0879 35.5162L73.1521 37.2838C73.3709 37.3996 73.5599 37.5036 73.7203 37.5962L74.7197 35.8638ZM74.0989 35.5221C73.8152 35.3674 73.5034 35.2378 73.1696 35.1291L72.5504 37.0309C72.7899 37.1088 72.9848 37.1926 73.1411 37.2779L74.0989 35.5221ZM73.1894 35.1358C72.7774 34.9921 72.3362 34.93 71.88 34.93V36.93C72.1571 36.93 72.3692 36.9679 72.5306 37.0242L73.1894 35.1358ZM71.88 34.93C71.1267 34.93 70.3727 35.0892 69.8026 35.5864L71.1174 37.0936C71.174 37.0441 71.3666 36.93 71.88 36.93V34.93ZM69.8038 35.5854C69.2485 36.0682 69 36.7231 69 37.43H71C71 37.2169 71.0581 37.1451 71.1162 37.0946L69.8038 35.5854ZM69 37.43C69 37.9565 69.1767 38.4569 69.5606 38.8546L70.9994 37.4654C70.9969 37.4628 70.9974 37.4629 70.9993 37.4658C71.0012 37.4688 71.0028 37.472 71.0037 37.4744C71.0045 37.4766 71.0038 37.4754 71.0027 37.4693C71.0016 37.4629 71 37.4502 71 37.43H69ZM69.5606 38.8546C69.8495 39.1538 70.201 39.386 70.5871 39.5662L71.4329 37.7538C71.219 37.654 71.0838 37.5528 70.9994 37.4654L69.5606 38.8546ZM70.5947 39.5697C70.9468 39.7304 71.3341 39.8749 71.7536 40.005L72.3464 38.0949C71.9925 37.9851 71.6866 37.8696 71.4253 37.7503L70.5947 39.5697ZM71.7731 40.0109C72.1443 40.1178 72.5235 40.241 72.9107 40.3807L73.5893 38.4993C73.1632 38.3456 72.7424 38.2088 72.3269 38.0891L71.7731 40.0109ZM72.9245 40.3855C73.2893 40.5111 73.6453 40.6607 73.9928 40.8344L74.8872 39.0456C74.4614 38.8326 74.024 38.6489 73.5755 38.4944L72.9245 40.3855ZM73.9989 40.8374C74.297 40.984 74.5531 41.1673 74.7729 41.3871L76.1871 39.9729C75.8069 39.5927 75.3697 39.2827 74.8811 39.0425L73.9989 40.8374ZM74.7807 41.3948C74.9853 41.595 75.1613 41.85 75.3016 42.1756L77.1384 41.3844C76.9054 40.8434 76.588 40.365 76.1793 39.9652L74.7807 41.3948ZM75.3038 42.1808C75.4212 42.449 75.5 42.8214 75.5 43.33H77.5C77.5 42.6253 77.3921 41.9643 77.1362 41.3792L75.3038 42.1808ZM75.5 43.33C75.5 43.8853 75.4043 44.389 75.2208 44.8504L77.0792 45.5896C77.3624 44.8776 77.5 44.1214 77.5 43.33H75.5ZM75.2208 44.8504C75.0383 45.3092 74.7754 45.7056 74.4282 46.0476L75.8318 47.4724C76.3779 46.9344 76.795 46.3041 77.0792 45.5896L75.2208 44.8504ZM74.4283 46.0475C74.0978 46.373 73.6717 46.647 73.1285 46.8576L73.8515 48.7223C74.615 48.4263 75.2822 48.0136 75.8317 47.4725L74.4283 46.0475ZM73.1336 46.8556C72.6205 47.0514 72.008 47.16 71.28 47.16V49.16C72.2054 49.16 73.0662 49.0219 73.8464 48.7243L73.1336 46.8556ZM71.28 47.16C70.8956 47.16 70.4971 47.1204 70.0835 47.0389L69.6965 49.0011C70.2295 49.1062 70.7577 49.16 71.28 49.16V47.16ZM70.0861 47.0394C69.6727 46.9567 69.2723 46.8418 68.8842 46.6948L68.1758 48.5651C68.6677 48.7515 69.174 48.8966 69.6939 49.0006L70.0861 47.0394ZM68.8965 46.6996C68.5061 46.5458 68.1433 46.3669 67.8067 46.1638L66.7733 47.8762C67.2101 48.1397 67.6739 48.3675 68.1635 48.5604L68.8965 46.6996ZM67.8067 46.1638C67.4815 45.9676 67.2105 45.7563 66.9871 45.5329L65.5729 46.9471C65.9228 47.297 66.3251 47.6057 66.7733 47.8762L67.8067 46.1638ZM67.125 46.7748L68.125 45.1948L66.435 44.1252L65.435 45.7052L67.125 46.7748ZM68.097 45.2367C68.0942 45.2406 68.0908 45.2444 68.0878 45.2471C68.0849 45.2497 68.0852 45.2488 68.091 45.2454L67.089 43.5146C66.8444 43.6561 66.6308 43.8456 66.463 44.0833L68.097 45.2367ZM68.1045 45.2375C68.0978 45.2415 68.0847 45.248 68.0663 45.2532C68.0478 45.2583 68.0314 45.26 68.02 45.26V43.26C67.6828 43.26 67.3619 43.3506 67.0755 43.5225L68.1045 45.2375ZM68.02 45.26C68.0127 45.26 68.011 45.2586 68.0181 45.2608C68.0263 45.2634 68.0485 45.2717 68.0849 45.2948L69.1551 43.6052C68.8248 43.396 68.4419 43.26 68.02 43.26V45.26ZM68.0974 45.3026C68.306 45.4304 68.5376 45.5714 68.7922 45.7255L69.8278 44.0145C69.5757 43.8619 69.3473 43.7229 69.1426 43.5974L68.0974 45.3026ZM68.802 45.7314C69.1186 45.918 69.4678 46.0815 69.8448 46.2248L70.5552 44.3552C70.2656 44.2451 70.0214 44.1286 69.818 44.0086L68.802 45.7314ZM69.8448 46.2248C70.3177 46.4045 70.8368 46.48 71.38 46.48V44.48C71.0166 44.48 70.749 44.4288 70.5552 44.3552L69.8448 46.2248ZM71.38 46.48C72.1255 46.48 72.8505 46.3191 73.4271 45.8668L72.1929 44.2931C72.0895 44.3742 71.8612 44.48 71.38 44.48V46.48ZM73.4366 45.8594C74.0877 45.3359 74.32 44.568 74.32 43.79H72.32C72.32 44.1853 72.2123 44.2774 72.1834 44.3006L73.4366 45.8594ZM74.32 43.79C74.32 43.2585 74.1692 42.7319 73.7926 42.3015L72.2874 43.6185C72.2915 43.6231 72.2966 43.6297 72.3025 43.6471C72.3092 43.6671 72.32 43.7112 72.32 43.79H74.32ZM73.7926 42.3015C73.4966 41.9632 73.1269 41.7082 72.7153 41.5203L71.8847 43.3397C72.0865 43.4318 72.2101 43.5301 72.2874 43.6185L73.7926 42.3015ZM72.7229 41.5238C72.363 41.3559 71.9656 41.2145 71.5359 41.096L71.0041 43.024C71.3477 43.1188 71.637 43.2241 71.8771 43.3362L72.7229 41.5238ZM71.5359 41.096C71.1604 40.9924 70.7743 40.8788 70.3774 40.7552L69.7826 42.6647C70.1991 42.7945 70.6062 42.9142 71.0041 43.024L71.5359 41.096ZM70.3916 40.7598C70.0271 40.6403 69.6716 40.4969 69.3247 40.3294L68.4553 42.1305C68.8817 42.3364 69.3195 42.513 69.7684 42.6602L70.3916 40.7598ZM69.3372 40.3356C69.047 40.1904 68.788 40.0038 68.5571 39.7729L67.1429 41.1871C67.5253 41.5695 67.9597 41.8829 68.4428 42.1244L69.3372 40.3356ZM68.5723 39.7884C68.3714 39.5786 68.1925 39.3036 68.0466 38.944L66.1934 39.696C66.4208 40.2564 66.7286 40.7547 67.1277 41.1716L68.5723 39.7884ZM68.0485 38.9486C67.9225 38.6337 67.84 38.1949 67.84 37.6H65.84C65.84 38.3651 65.9441 39.0729 66.1915 39.6914L68.0485 38.9486ZM67.84 37.6C67.84 37.1916 67.9214 36.7905 68.091 36.3896L66.249 35.6103C65.9786 36.2495 65.84 36.915 65.84 37.6H67.84ZM68.091 36.3896C68.2553 36.0012 68.4979 35.6503 68.8299 35.3339L67.4501 33.8861C66.9288 34.383 66.5247 34.9588 66.249 35.6103L68.091 36.3896ZM68.8299 35.3339C69.1503 35.0285 69.5577 34.7713 70.071 34.5726L69.349 32.7074C68.6223 32.9887 67.983 33.3781 67.4501 33.8861L68.8299 35.3339ZM70.0797 34.5691C70.5612 34.3776 71.142 34.27 71.84 34.27V32.27C70.938 32.27 70.0988 32.4091 69.3403 32.7108L70.0797 34.5691ZM71.84 34.27C72.2317 34.27 72.6074 34.3021 72.968 34.3651L73.312 32.3949C72.8326 32.3112 72.3416 32.27 71.84 32.27V34.27ZM72.9856 34.368C73.3513 34.4251 73.6902 34.5126 74.0043 34.6283L74.6957 32.7516C74.2498 32.5874 73.782 32.4682 73.2944 32.392L72.9856 34.368ZM74.0189 34.6336C74.3407 34.7465 74.6339 34.8827 74.9007 35.0406L75.9193 33.3194C75.5328 33.0906 75.1193 32.9002 74.6811 32.7464L74.0189 34.6336ZM74.9214 35.0525C75.1917 35.2039 75.4237 35.372 75.6217 35.5548L76.9783 34.0852C76.6563 33.788 76.2949 33.5294 75.8986 33.3075L74.9214 35.0525ZM75.4183 34.3482L74.5783 35.9182L76.3417 36.8617L77.1817 35.2917L75.4183 34.3482ZM85.7442 40.09L86.5161 40.7257L86.5301 40.7087L86.5433 40.6912L85.7442 40.09ZM85.4742 40.36L84.8645 39.5674L84.8645 39.5674L85.4742 40.36ZM84.6842 40.35L84.1628 41.2033L84.1729 41.2095L84.1832 41.2154L84.6842 40.35ZM84.2742 40.11L83.7543 40.9642L83.7681 40.9726L83.7822 40.9805L84.2742 40.11ZM83.7342 39.86L83.3998 40.8024L83.3998 40.8024L83.7342 39.86ZM81.9742 39.96L81.527 39.0655L81.5183 39.0699L81.9742 39.96ZM81.2942 40.56L82.1164 41.1292L82.1164 41.1292L81.2942 40.56ZM80.8942 41.52L81.8683 41.7461L81.8692 41.7423L80.8942 41.52ZM81.3342 45.08L80.5198 45.6603L80.5246 45.667L81.3342 45.08ZM83.7742 45.75L84.1609 46.6722L84.168 46.6692L84.175 46.6661L83.7742 45.75ZM84.3142 45.45L84.9024 46.2587L84.9142 46.2502L84.9257 46.2413L84.3142 45.45ZM84.7142 45.14L84.121 44.3349L84.1105 44.3426L84.1003 44.3506L84.7142 45.14ZM85.7442 45.27L84.9264 45.8455L84.946 45.8733L84.9675 45.8998L85.7442 45.27ZM86.6442 46.38L87.3976 47.0375L87.9508 46.4037L87.421 45.7502L86.6442 46.38ZM85.6342 47.28L86.1742 48.1218L86.1853 48.1144L85.6342 47.28ZM84.5442 47.82L84.8708 48.7652L84.8806 48.7617L84.5442 47.82ZM83.4342 48.08L83.3102 47.0877L83.3015 47.0888L83.2928 47.09L83.4342 48.08ZM80.5242 47.8L80.1381 48.7224L80.1419 48.724L80.5242 47.8ZM79.0042 46.76L78.2763 47.4457L78.2814 47.4511L78.2866 47.4565L79.0042 46.76ZM77.9642 45.07L77.0294 45.4252L77.0326 45.4333L77.9642 45.07ZM77.9142 40.7L76.9694 40.3722L76.9675 40.3779L77.9142 40.7ZM78.9042 39.01L78.1671 38.3343L78.1666 38.3347L78.9042 39.01ZM80.5242 37.88L80.1349 36.9589L80.1315 36.9603L80.5242 37.88ZM86.5642 39L87.3633 39.6012L87.882 38.9117L87.2761 38.2976L86.5642 39ZM84.9723 39.4543C84.9117 39.5278 84.875 39.5593 84.8645 39.5674L86.0839 41.1526C86.2468 41.0273 86.39 40.8788 86.5161 40.7257L84.9723 39.4543ZM84.8645 39.5674C85.0172 39.4499 85.142 39.46 85.1042 39.46V41.46C85.3864 41.46 85.7579 41.4034 86.0839 41.1526L84.8645 39.5674ZM85.1042 39.46C85.108 39.46 85.1201 39.4605 85.1376 39.4651C85.1553 39.4698 85.1719 39.4768 85.1853 39.4846L84.1832 41.2154C84.4695 41.3812 84.7837 41.46 85.1042 41.46V39.46ZM85.2057 39.4967C85.0739 39.4162 84.9272 39.3304 84.7663 39.2394L83.7822 40.9805C83.9279 41.0629 84.0545 41.1371 84.1628 41.2033L85.2057 39.4967ZM84.7942 39.2558C84.571 39.1199 84.3263 39.009 84.0686 38.9176L83.3998 40.8024C83.5554 40.8576 83.6708 40.9134 83.7543 40.9642L84.7942 39.2558ZM84.0686 38.9176C83.7212 38.7943 83.3429 38.75 82.9642 38.75V40.75C83.1988 40.75 83.3339 40.779 83.3998 40.8024L84.0686 38.9176ZM82.9642 38.75C82.4617 38.75 81.9724 38.8428 81.527 39.0656L82.4214 40.8544C82.536 40.7971 82.7067 40.75 82.9642 40.75V38.75ZM81.5183 39.0699C81.0939 39.2874 80.7429 39.5995 80.472 39.9908L82.1164 41.1292C82.2055 41.0005 82.3079 40.9126 82.4301 40.85L81.5183 39.0699ZM80.472 39.9908C80.2047 40.3769 80.0279 40.8213 79.9193 41.2976L81.8692 41.7423C81.9339 41.4586 82.0237 41.2631 82.1164 41.1292L80.472 39.9908ZM79.9201 41.2939C79.8128 41.7563 79.7642 42.2575 79.7642 42.79H81.7642C81.7642 42.3758 81.8023 42.0304 81.8683 41.7461L79.9201 41.2939ZM79.7642 42.79C79.7642 43.8902 79.9713 44.8905 80.5198 45.6603L82.1486 44.4997C81.9371 44.2028 81.7642 43.6764 81.7642 42.79H79.7642ZM80.5246 45.667C81.1043 46.4665 81.9388 46.88 82.9242 46.88V44.88C82.5629 44.88 82.3375 44.7602 82.1438 44.493L80.5246 45.667ZM82.9242 46.88C83.346 46.88 83.78 46.8319 84.1609 46.6722L83.3875 44.8278C83.3551 44.8414 83.2224 44.88 82.9242 44.88V46.88ZM84.175 46.6661C84.4369 46.5516 84.6836 46.4178 84.9024 46.2587L83.726 44.6412C83.6515 44.6955 83.5382 44.7617 83.3734 44.8338L84.175 46.6661ZM84.9257 46.2413C85.073 46.1274 85.2072 46.0234 85.3282 45.9293L84.1003 44.3506C83.9813 44.4432 83.8488 44.5459 83.7028 44.6587L84.9257 46.2413ZM85.3074 45.945C85.2742 45.9695 85.2402 45.985 85.2122 45.9934C85.1858 46.0012 85.1741 46 85.1842 46V44C84.8251 44 84.4498 44.0926 84.121 44.3349L85.3074 45.945ZM85.1842 46C85.1855 46 85.1404 45.9998 85.0749 45.9683C85.0052 45.9347 84.9548 45.8859 84.9264 45.8455L86.562 44.6945C86.2233 44.2131 85.7107 44 85.1842 44V46ZM84.9675 45.8998L85.8675 47.0098L87.421 45.7502L86.521 44.6402L84.9675 45.8998ZM85.8908 45.7225C85.6214 46.0312 85.3512 46.2685 85.0832 46.4455L86.1853 48.1144C86.6239 47.8248 87.0271 47.4621 87.3976 47.0375L85.8908 45.7225ZM85.0943 46.4383C84.801 46.6264 84.5057 46.7719 84.2079 46.8782L84.8806 48.7617C85.3294 48.6014 85.7607 48.3869 86.1742 48.1217L85.0943 46.4383ZM84.2177 46.8748C83.9147 46.9795 83.6125 47.0499 83.3102 47.0877L83.5583 49.0723C84.0026 49.0167 84.4404 48.9138 84.8707 48.7652L84.2177 46.8748ZM83.2928 47.09C82.9632 47.1371 82.6472 47.16 82.3442 47.16V49.16C82.7479 49.16 83.1586 49.1295 83.5756 49.0699L83.2928 47.09ZM82.3442 47.16C81.8409 47.16 81.3642 47.0653 80.9066 46.876L80.1419 48.724C80.8442 49.0146 81.5809 49.16 82.3442 49.16V47.16ZM80.9104 46.8775C80.4637 46.6906 80.0693 46.4215 79.7218 46.0635L78.2866 47.4565C78.8191 48.0051 79.4381 48.4294 80.1381 48.7224L80.9104 46.8775ZM79.7321 46.0743C79.3976 45.7192 79.1154 45.2695 78.8959 44.7066L77.0326 45.4333C77.333 46.2038 77.7441 46.8807 78.2763 47.4457L79.7321 46.0743ZM78.899 44.7148C78.6963 44.1814 78.5842 43.5452 78.5842 42.79H76.5842C76.5842 43.7414 76.7254 44.6252 77.0294 45.4252L78.899 44.7148ZM78.5842 42.79C78.5842 42.1427 78.6793 41.5558 78.8609 41.0221L76.9675 40.3779C76.7091 41.1375 76.5842 41.9439 76.5842 42.79H78.5842ZM78.859 41.0278C79.0445 40.493 79.3074 40.0505 79.6418 39.6852L78.1666 38.3347C77.6343 38.9162 77.2373 39.6003 76.9695 40.3722L78.859 41.0278ZM79.6414 39.6857C79.9787 39.3177 80.3987 39.021 80.917 38.7996L80.1315 36.9603C79.3698 37.2857 78.7097 37.7423 78.1671 38.3343L79.6414 39.6857ZM80.9135 38.8011C81.4144 38.5894 82.0244 38.47 82.7642 38.47V36.47C81.8107 36.47 80.9274 36.6239 80.1349 36.9589L80.9135 38.8011ZM82.7642 38.47C83.4723 38.47 84.0481 38.5832 84.5139 38.7807L85.2945 36.9393C84.5337 36.6168 83.6828 36.47 82.7642 36.47V38.47ZM84.5139 38.7807C85.0004 38.9869 85.4458 39.2903 85.8524 39.7023L87.2761 38.2976C86.6959 37.7097 86.0348 37.2531 85.2945 36.9393L84.5139 38.7807ZM85.7651 38.3988L84.9451 39.4888L86.5433 40.6912L87.3633 39.6012L85.7651 38.3988ZM90.9508 38.54H89.9508V40.7142L91.6016 39.2992L90.9508 38.54ZM92.1608 37.77L92.5682 38.6832L92.5746 38.6804L92.1608 37.77ZM95.2308 37.77L94.8117 38.6779L94.8201 38.6818L94.8285 38.6855L95.2308 37.77ZM96.3408 38.59L95.5785 39.2372L95.5846 39.2444L96.3408 38.59ZM97.0208 39.84L96.067 40.1405L96.0682 40.1443L97.0208 39.84ZM97.2508 48V49H98.2508V48H97.2508ZM94.1508 48H93.1508V49H94.1508V48ZM93.8008 40.23L93.0252 40.8613L93.0326 40.8702L93.8008 40.23ZM91.8108 40.02L92.2415 40.9225L92.25 40.9184L91.8108 40.02ZM90.9508 40.6L90.2898 39.8496L89.9508 40.1482V40.6H90.9508ZM90.9508 48V49H91.9508V48H90.9508ZM87.8508 48H86.8508V49H87.8508V48ZM87.8508 33.03V32.03H86.8508V33.03H87.8508ZM90.9508 33.03H91.9508V32.03H90.9508V33.03ZM91.6016 39.2992C91.9043 39.0397 92.2262 38.8358 92.5682 38.6832L91.7533 36.8568C91.2287 37.0908 90.7439 37.4002 90.3 37.7807L91.6016 39.2992ZM92.5746 38.6804C92.8559 38.5525 93.2315 38.47 93.7308 38.47V36.47C93.0167 36.47 92.3456 36.5875 91.747 36.8596L92.5746 38.6804ZM93.7308 38.47C94.1795 38.47 94.5321 38.5489 94.8117 38.6779L95.6498 36.862C95.0628 36.5911 94.4154 36.47 93.7308 36.47V38.47ZM94.8285 38.6855C95.135 38.8202 95.3803 39.0038 95.5785 39.2372L97.1031 37.9428C96.7013 37.4695 96.2066 37.1065 95.6331 36.8545L94.8285 38.6855ZM95.5846 39.2444C95.7857 39.4767 95.95 39.7693 96.067 40.1405L97.9746 39.5395C97.7849 38.9374 97.4959 38.3966 97.097 37.9356L95.5846 39.2444ZM96.0682 40.1443C96.1865 40.5145 96.2508 40.9339 96.2508 41.41H98.2508C98.2508 40.7527 98.1618 40.1255 97.9734 39.5357L96.0682 40.1443ZM96.2508 41.41V48H98.2508V41.41H96.2508ZM97.2508 47H94.1508V49H97.2508V47ZM95.1508 48V41.41H93.1508V48H95.1508ZM95.1508 41.41C95.1508 40.7599 95.0013 40.1085 94.569 39.5898L93.0326 40.8702C93.0669 40.9114 93.1508 41.0468 93.1508 41.41H95.1508ZM94.5763 39.5987C94.1104 39.0262 93.45 38.8 92.7708 38.8V40.8C92.8933 40.8 92.9569 40.8194 92.983 40.8303C93.0036 40.8389 93.0133 40.8467 93.0252 40.8613L94.5763 39.5987ZM92.7708 38.8C92.2814 38.8 91.8109 38.9068 91.3716 39.1216L92.25 40.9184C92.4107 40.8398 92.5801 40.8 92.7708 40.8V38.8ZM91.3801 39.1175C90.992 39.3027 90.6291 39.5507 90.2898 39.8496L91.6118 41.3503C91.8325 41.1559 92.0429 41.0173 92.2415 40.9225L91.3801 39.1175ZM89.9508 40.6V48H91.9508V40.6H89.9508ZM90.9508 47H87.8508V49H90.9508V47ZM88.8508 48V33.03H86.8508V48H88.8508ZM87.8508 34.03H90.9508V32.03H87.8508V34.03ZM89.9508 33.03V38.54H91.9508V33.03H89.9508ZM105.707 41.57V42.57H106.707V41.57H105.707ZM105.607 40.85L104.639 41.099L104.642 41.1119L104.646 41.1247L105.607 40.85ZM105.297 40.23L104.497 40.83L104.509 40.8461L104.522 40.8617L105.297 40.23ZM104.737 39.78L104.3 40.6795L104.3 40.6795L104.737 39.78ZM102.507 40.12L103.214 40.8271L103.221 40.8201L102.507 40.12ZM101.847 41.57L100.861 41.4039L100.665 42.57H101.847V41.57ZM101.807 43.37V42.37H100.685L100.814 43.4846L101.807 43.37ZM102.597 45.26L101.919 45.9953L101.926 46.001L102.597 45.26ZM105.177 45.71L104.861 44.7613L104.861 44.7613L105.177 45.71ZM105.867 45.42L105.408 44.5313L105.396 44.5376L105.867 45.42ZM106.427 45.13L105.98 44.2356L105.973 44.2391L105.966 44.2428L106.427 45.13ZM107.527 45.27L106.709 45.8455L106.729 45.8733L106.75 45.8998L107.527 45.27ZM108.427 46.38L109.18 47.0375L109.734 46.4037L109.204 45.7502L108.427 46.38ZM107.387 47.28L107.913 48.1306L107.917 48.128L107.387 47.28ZM106.247 47.82L106.558 48.7703L106.568 48.7671L106.247 47.82ZM105.077 48.08L104.959 47.0869L104.95 47.0881L104.94 47.0894L105.077 48.08ZM101.917 47.81L101.563 48.7452L101.575 48.7495L101.917 47.81ZM100.247 46.75L99.5449 47.4621L99.55 47.467L100.247 46.75ZM99.117 45.01L98.1867 45.3768L98.1898 45.3844L99.117 45.01ZM99.057 40.62L98.1244 40.259L98.1211 40.2678L99.057 40.62ZM100.077 38.99L99.3546 38.2985L99.3494 38.304L100.077 38.99ZM101.687 37.88L101.291 36.9618L101.287 36.9634L101.687 37.88ZM105.707 37.79L105.355 38.7259L105.358 38.7272L105.707 37.79ZM107.177 38.72L106.47 39.4271L106.476 39.4328L107.177 38.72ZM108.137 40.22L107.203 40.5769L107.208 40.5896L108.137 40.22ZM108.457 42.79L109.448 42.9251L109.448 42.9251L108.457 42.79ZM108.347 43.14L107.495 42.6159L107.495 42.6159L108.347 43.14ZM108.127 43.32L107.791 42.3782L107.779 42.3823L107.768 42.3866L108.127 43.32ZM106.707 41.57C106.707 41.2319 106.661 40.8994 106.569 40.5753L104.646 41.1247C104.686 41.2672 104.707 41.4147 104.707 41.57H106.707ZM106.576 40.6009C106.481 40.233 106.314 39.8946 106.072 39.5983L104.522 40.8617C104.574 40.9253 104.613 41.0003 104.639 41.099L106.576 40.6009ZM106.097 39.63C105.851 39.3023 105.534 39.0555 105.174 38.8805L104.3 40.6795C104.407 40.7312 104.463 40.7843 104.497 40.83L106.097 39.63ZM105.174 38.8805C104.771 38.6849 104.33 38.61 103.887 38.61V40.61C104.111 40.61 104.236 40.6484 104.3 40.6795L105.174 38.8805ZM103.887 38.61C103.098 38.61 102.356 38.8454 101.793 39.4199L103.221 40.8201C103.324 40.7146 103.503 40.61 103.887 40.61V38.61ZM101.8 39.4129C101.275 39.9379 100.99 40.6384 100.861 41.4039L102.833 41.7361C102.918 41.2349 103.073 40.9687 103.214 40.8271L101.8 39.4129ZM101.847 42.57H105.707V40.57H101.847V42.57ZM100.814 43.4846C100.928 44.4735 101.246 45.3749 101.919 45.9952L103.275 44.5247C103.094 44.3584 102.886 43.9998 102.8 43.2554L100.814 43.4846ZM101.926 46.001C102.567 46.5821 103.37 46.84 104.247 46.84V44.84C103.777 44.84 103.481 44.7112 103.269 44.519L101.926 46.001ZM104.247 46.84C104.683 46.84 105.105 46.7881 105.493 46.6587L104.861 44.7613C104.729 44.8052 104.531 44.84 104.247 44.84V46.84ZM105.493 46.6587C105.796 46.5578 106.079 46.4402 106.338 46.3023L105.396 44.5376C105.255 44.6131 105.078 44.6888 104.861 44.7613L105.493 46.6587ZM106.326 46.3086C106.533 46.2016 106.721 46.1044 106.888 46.0172L105.966 44.2428C105.8 44.3289 105.614 44.4251 105.408 44.5314L106.326 46.3086ZM106.874 46.0244C106.914 46.0044 106.942 46 106.967 46V44C106.619 44 106.287 44.0822 105.98 44.2356L106.874 46.0244ZM106.967 46C106.968 46 106.923 45.9998 106.858 45.9683C106.788 45.9347 106.738 45.8859 106.709 45.8455L108.345 44.6945C108.006 44.2131 107.494 44 106.967 44V46ZM106.75 45.8998L107.65 47.0098L109.204 45.7502L108.304 44.6402L106.75 45.8998ZM107.674 45.7225C107.412 46.0227 107.139 46.256 106.857 46.432L107.917 48.128C108.382 47.8373 108.803 47.4706 109.18 47.0375L107.674 45.7225ZM106.861 46.4294C106.556 46.6178 106.245 46.7648 105.926 46.8729L106.568 48.7671C107.036 48.6085 107.484 48.3955 107.913 48.1306L106.861 46.4294ZM105.936 46.8697C105.61 46.9763 105.285 47.0483 104.959 47.0869L105.195 49.073C105.656 49.0183 106.11 48.917 106.558 48.7703L105.936 46.8697ZM104.94 47.0894C104.594 47.1371 104.27 47.16 103.967 47.16V49.16C104.371 49.16 104.786 49.1295 105.214 49.0706L104.94 47.0894ZM103.967 47.16C103.349 47.16 102.783 47.0612 102.26 46.8705L101.575 48.7495C102.331 49.0254 103.131 49.16 103.967 49.16V47.16ZM102.271 46.8749C101.764 46.6828 101.325 46.4031 100.944 46.033L99.55 47.467C100.129 48.0302 100.803 48.4572 101.563 48.7451L102.271 46.8749ZM100.949 46.0379C100.585 45.6785 100.279 45.2179 100.044 44.6355L98.1898 45.3844C98.5146 46.1887 98.9628 46.8881 99.545 47.4621L100.949 46.0379ZM100.047 44.6432C99.8295 44.0905 99.707 43.4129 99.707 42.59H97.707C97.707 43.6071 97.8579 44.5428 98.1867 45.3767L100.047 44.6432ZM99.707 42.59C99.707 42.0113 99.8039 41.4744 99.9929 40.9722L98.1211 40.2678C97.8435 41.0056 97.707 41.782 97.707 42.59H99.707ZM99.9896 40.981C100.185 40.4771 100.457 40.0452 100.805 39.676L99.3494 38.304C98.8175 38.8682 98.4094 39.5229 98.1245 40.259L99.9896 40.981ZM100.799 39.6814C101.149 39.316 101.574 39.0201 102.087 38.7966L101.287 36.9634C100.546 37.2865 99.8981 37.7307 99.3546 38.2985L100.799 39.6814ZM102.083 38.7981C102.574 38.5863 103.15 38.47 103.827 38.47V36.47C102.918 36.47 102.067 36.627 101.291 36.9618L102.083 38.7981ZM103.827 38.47C104.409 38.47 104.915 38.5602 105.355 38.7259L106.059 36.8541C105.366 36.5931 104.618 36.47 103.827 36.47V38.47ZM105.358 38.7272C105.806 38.8937 106.171 39.1284 106.47 39.4271L107.884 38.0129C107.37 37.4983 106.755 37.1129 106.056 36.8528L105.358 38.7272ZM106.476 39.4328C106.777 39.7296 107.022 40.1046 107.203 40.5769L109.071 39.8631C108.798 39.1487 108.403 38.5237 107.878 38.0072L106.476 39.4328ZM107.208 40.5896C107.387 41.0392 107.487 41.5772 107.487 42.22H109.487C109.487 41.3694 109.354 40.5741 109.066 39.8504L107.208 40.5896ZM107.487 42.22C107.487 42.4307 107.478 42.5708 107.466 42.6549L109.448 42.9251C109.476 42.7158 109.487 42.476 109.487 42.22H107.487ZM107.466 42.6549C107.462 42.6836 107.459 42.6929 107.461 42.6877C107.462 42.6826 107.471 42.6552 107.495 42.6159L109.199 43.6641C109.35 43.4177 109.417 43.1521 109.448 42.9251L107.466 42.6549ZM107.495 42.6159C107.523 42.5714 107.563 42.5216 107.619 42.476C107.675 42.4302 107.735 42.3983 107.791 42.3782L108.463 44.2617C108.777 44.1497 109.03 43.9389 109.199 43.6641L107.495 42.6159ZM107.768 42.3866C107.788 42.3789 107.804 42.3743 107.814 42.3717C107.825 42.3691 107.831 42.3682 107.832 42.3681C107.832 42.368 107.829 42.3685 107.821 42.369C107.814 42.3695 107.802 42.37 107.787 42.37V44.37C107.994 44.37 108.242 44.3472 108.486 44.2533L107.768 42.3866ZM107.787 42.37H101.807V44.37H107.787V42.37ZM116.328 40.41H117.328V40.0271L117.073 39.7421L116.328 40.41ZM115.568 39.87L115.205 40.8016L115.215 40.8054L115.225 40.8091L115.568 39.87ZM113.918 39.88L113.491 38.9757L113.918 39.88ZM113.288 40.43L112.473 39.8508L112.47 39.855L113.288 40.43ZM112.878 41.4L113.848 41.6425L113.848 41.6425L112.878 41.4ZM112.848 44.23L111.87 44.4395L111.87 44.4395L112.848 44.23ZM113.178 45.14L112.321 45.6545L112.33 45.669L112.339 45.6832L113.178 45.14ZM113.698 45.63L114.145 44.7356L113.698 45.63ZM114.978 45.72L115.195 46.6962L115.208 46.6933L115.221 46.6901L114.978 45.72ZM115.488 45.53L115.951 46.4166L115.488 45.53ZM115.918 45.23L116.587 45.9733L116.589 45.9715L115.918 45.23ZM116.328 44.8L117.097 45.4402L117.328 45.162V44.8H116.328ZM119.428 33.03H120.428V32.03H119.428V33.03ZM119.428 48V49H120.428V48H119.428ZM116.748 47.48L115.791 47.7707L115.797 47.789L115.803 47.8071L116.748 47.48ZM116.508 46.69L117.465 46.3993L116.963 44.7457L115.779 46.0053L116.508 46.69ZM115.858 47.29L116.48 48.0731L116.48 48.0731L115.858 47.29ZM115.118 47.76L115.556 48.659L115.565 48.6544L115.118 47.76ZM114.268 48.05L114.056 47.0728L114.043 47.0755L114.031 47.0786L114.268 48.05ZM111.788 47.8L111.326 48.6866L111.326 48.6866L111.788 47.8ZM110.598 46.76L111.404 46.1676L111.404 46.1676L110.598 46.76ZM109.808 45.1L108.846 45.3722L108.849 45.3837L109.808 45.1ZM109.848 40.7L110.8 41.0076L110.801 41.0048L109.848 40.7ZM110.748 38.98L109.971 38.3514L109.97 38.3527L110.748 38.98ZM112.158 37.84L111.711 36.9456L111.711 36.9456L112.158 37.84ZM115.328 37.66L114.942 38.5826L114.942 38.5826L115.328 37.66ZM116.328 38.28L115.673 39.0357L117.328 40.4699V38.28H116.328ZM116.328 33.03V32.03H115.328V33.03H116.328ZM117.073 39.7421C116.752 39.3845 116.367 39.0973 115.912 38.9309L115.225 40.8091C115.316 40.8426 115.438 40.9155 115.584 41.0779L117.073 39.7421ZM115.932 38.9384C115.54 38.7855 115.13 38.71 114.708 38.71V40.71C114.887 40.71 115.05 40.7411 115.205 40.8016L115.932 38.9384ZM114.708 38.71C114.286 38.71 113.875 38.7944 113.491 38.9757L114.345 40.7842C114.441 40.7389 114.557 40.71 114.708 40.71V38.71ZM113.491 38.9757C113.071 39.174 112.735 39.4816 112.473 39.8508L114.103 41.0092C114.201 40.8717 114.285 40.8127 114.345 40.7842L113.491 38.9757ZM112.47 39.855C112.205 40.2318 112.028 40.6792 111.908 41.1574L113.848 41.6425C113.929 41.3208 114.025 41.1215 114.106 41.0049L112.47 39.855ZM111.908 41.1574C111.782 41.6601 111.728 42.2297 111.728 42.85H113.728C113.728 42.337 113.774 41.9399 113.848 41.6425L111.908 41.1574ZM111.728 42.85C111.728 43.4396 111.771 43.9748 111.87 44.4395L113.826 44.0205C113.766 43.7385 113.728 43.3537 113.728 42.85H111.728ZM111.87 44.4395C111.965 44.8805 112.106 45.2972 112.321 45.6545L114.036 44.6255C113.97 44.5161 113.892 44.3261 113.826 44.0205L111.87 44.4395ZM112.339 45.6832C112.562 46.0288 112.861 46.3294 113.251 46.5244L114.145 44.7356C114.136 44.7306 114.088 44.7045 114.018 44.5967L112.339 45.6832ZM113.251 46.5244C113.604 46.7008 113.983 46.78 114.368 46.78V44.78C114.261 44.78 114.193 44.7592 114.145 44.7356L113.251 46.5244ZM114.368 46.78C114.652 46.78 114.93 46.7551 115.195 46.6962L114.761 44.7438C114.667 44.7649 114.538 44.78 114.368 44.78V46.78ZM115.221 46.6901C115.475 46.6265 115.72 46.5368 115.951 46.4166L115.026 44.6434C114.949 44.6832 114.854 44.7202 114.736 44.7498L115.221 46.6901ZM115.951 46.4166C116.181 46.2962 116.394 46.1474 116.587 45.9733L115.249 44.4867C115.176 44.5525 115.102 44.6037 115.026 44.6434L115.951 46.4166ZM116.589 45.9715C116.767 45.8104 116.936 45.6326 117.097 45.4402L115.56 44.1598C115.454 44.2874 115.349 44.3963 115.247 44.4884L116.589 45.9715ZM117.328 44.8V40.41H115.328V44.8H117.328ZM118.428 33.03V48H120.428V33.03H118.428ZM119.428 47H117.508V49H119.428V47ZM117.508 47C117.464 47 117.515 46.9912 117.593 47.0447C117.63 47.0698 117.657 47.0989 117.676 47.1243C117.693 47.1483 117.696 47.1613 117.693 47.1529L115.803 47.8071C115.919 48.1423 116.128 48.4654 116.464 48.6953C116.795 48.9222 117.166 49 117.508 49V47ZM117.705 47.1893L117.465 46.3993L115.551 46.9807L115.791 47.7707L117.705 47.1893ZM115.779 46.0053C115.605 46.1915 115.423 46.3583 115.236 46.5069L116.48 48.0731C116.746 47.8617 116.999 47.6285 117.237 47.3747L115.779 46.0053ZM115.236 46.5069C115.066 46.6425 114.878 46.7623 114.671 46.8656L115.565 48.6544C115.892 48.4911 116.198 48.2974 116.48 48.0731L115.236 46.5069ZM114.68 46.861C114.498 46.9499 114.291 47.0217 114.056 47.0728L114.481 49.0272C114.859 48.945 115.219 48.8234 115.556 48.659L114.68 46.861ZM114.031 47.0786C113.819 47.1304 113.573 47.16 113.288 47.16V49.16C113.71 49.16 114.118 49.1162 114.506 49.0214L114.031 47.0786ZM113.288 47.16C112.903 47.16 112.562 47.0758 112.251 46.9134L111.326 48.6866C111.934 49.0042 112.594 49.16 113.288 49.16V47.16ZM112.251 46.9134C111.937 46.7498 111.655 46.5085 111.404 46.1676L109.793 47.3524C110.209 47.9181 110.719 48.3701 111.326 48.6866L112.251 46.9134ZM111.404 46.1676C111.152 45.8248 110.934 45.3813 110.767 44.8162L108.849 45.3837C109.069 46.1254 109.378 46.7885 109.793 47.3524L111.404 46.1676ZM110.771 44.8278C110.614 44.2736 110.528 43.6178 110.528 42.85H108.528C108.528 43.7622 108.629 44.6064 108.846 45.3721L110.771 44.8278ZM110.528 42.85C110.528 42.1692 110.622 41.5575 110.8 41.0075L108.897 40.3924C108.648 41.1625 108.528 41.9841 108.528 42.85H110.528ZM110.801 41.0048C110.982 40.4396 111.227 39.9793 111.527 39.6073L109.97 38.3527C109.496 38.9407 109.142 39.627 108.896 40.3952L110.801 41.0048ZM111.526 39.6086C111.832 39.2304 112.19 38.9422 112.605 38.7344L111.711 36.9456C111.033 37.2844 110.452 37.7562 109.971 38.3514L111.526 39.6086ZM112.605 38.7344C113.002 38.536 113.451 38.43 113.968 38.43V36.43C113.166 36.43 112.407 36.5973 111.711 36.9456L112.605 38.7344ZM113.968 38.43C114.42 38.43 114.733 38.4951 114.942 38.5826L115.714 36.7374C115.19 36.5182 114.596 36.43 113.968 36.43V38.43ZM114.942 38.5826C115.211 38.695 115.454 38.8453 115.673 39.0357L116.983 37.5243C116.603 37.1946 116.179 36.9317 115.714 36.7374L114.942 38.5826ZM117.328 38.28V33.03H115.328V38.28H117.328ZM116.328 34.03H119.428V32.03H116.328V34.03ZM130.823 37.63H131.823V36.63H130.823V37.63ZM130.823 48V49H131.823V48H130.823ZM128.143 47.48L127.185 47.7673L127.191 47.7873L127.198 47.8071L128.143 47.48ZM127.963 46.88L128.92 46.5926L128.449 45.0195L127.268 46.161L127.963 46.88ZM127.343 47.41L127.926 48.222L127.935 48.2161L127.943 48.21L127.343 47.41ZM126.653 47.81L127.059 48.7239L127.07 48.7187L126.653 47.81ZM125.863 48.06L125.658 47.0812L125.644 47.084L125.631 47.0872L125.863 48.06ZM123.433 47.87L123.014 48.7779L123.022 48.7818L123.03 48.7855L123.433 47.87ZM122.333 47.04L121.57 47.6872L121.57 47.6872L122.333 47.04ZM121.653 45.79L122.605 45.4857L122.605 45.4857L121.653 45.79ZM121.423 37.63V36.63H120.423V37.63H121.423ZM124.523 37.63H125.523V36.63H124.523V37.63ZM124.873 45.4L125.641 44.7598L125.641 44.7598L124.873 45.4ZM126.853 45.61L127.283 46.5125L127.292 46.5084L126.853 45.61ZM127.723 45.02L128.384 45.7703L128.723 45.4717V45.02H127.723ZM127.723 37.63V36.63H126.723V37.63H127.723ZM129.823 37.63V48H131.823V37.63H129.823ZM130.823 47H128.903V49H130.823V47ZM128.903 47C128.858 47 128.909 46.9912 128.987 47.0447C129.024 47.0698 129.052 47.0989 129.07 47.1243C129.087 47.1483 129.091 47.1613 129.088 47.1529L127.198 47.8071C127.314 48.1423 127.522 48.4654 127.858 48.6953C128.19 48.9222 128.56 49 128.903 49V47ZM129.1 47.1926L128.92 46.5926L127.005 47.1673L127.185 47.7673L129.1 47.1926ZM127.268 46.161C127.096 46.3266 126.921 46.476 126.743 46.61L127.943 48.21C128.191 48.0239 128.429 47.82 128.658 47.599L127.268 46.161ZM126.759 46.598C126.6 46.7126 126.425 46.8139 126.235 46.9013L127.07 48.7187C127.373 48.5794 127.659 48.414 127.926 48.222L126.759 46.598ZM126.247 46.8962C126.078 46.9711 125.883 47.034 125.658 47.0812L126.068 49.0388C126.416 48.9659 126.747 48.8622 127.059 48.7238L126.247 46.8962ZM125.631 47.0872C125.438 47.1332 125.21 47.16 124.943 47.16V49.16C125.342 49.16 125.728 49.1201 126.094 49.0328L125.631 47.0872ZM124.943 47.16C124.49 47.16 124.127 47.083 123.835 46.9545L123.03 48.7855C123.618 49.0436 124.262 49.16 124.943 49.16V47.16ZM123.852 46.962C123.546 46.8211 123.298 46.6319 123.095 46.3928L121.57 47.6872C121.967 48.1547 122.452 48.5189 123.014 48.7779L123.852 46.962ZM123.095 46.3928C122.888 46.1485 122.722 45.851 122.605 45.4857L120.7 46.0943C120.89 46.689 121.178 47.2248 121.57 47.6872L123.095 46.3928ZM122.605 45.4857C122.487 45.1166 122.423 44.694 122.423 44.21H120.423C120.423 44.8726 120.511 45.5034 120.7 46.0943L122.605 45.4857ZM122.423 44.21V37.63H120.423V44.21H122.423ZM121.423 38.63H124.523V36.63H121.423V38.63ZM123.523 37.63V44.21H125.523V37.63H123.523ZM123.523 44.21C123.523 44.863 123.67 45.5194 124.104 46.0402L125.641 44.7598C125.608 44.7206 125.523 44.5836 125.523 44.21H123.523ZM124.104 46.0402C124.573 46.6025 125.231 46.82 125.903 46.82V44.82C125.777 44.82 125.711 44.8006 125.683 44.789C125.66 44.7797 125.651 44.7717 125.641 44.7598L124.104 46.0402ZM125.903 46.82C126.385 46.82 126.849 46.7196 127.283 46.5125L126.422 44.7075C126.269 44.7803 126.101 44.82 125.903 44.82V46.82ZM127.292 46.5084C127.681 46.3182 128.044 46.0692 128.384 45.7703L127.062 44.2696C126.841 44.4641 126.624 44.6084 126.413 44.7116L127.292 46.5084ZM128.723 45.02V37.63H126.723V45.02H128.723ZM127.723 38.63H130.823V36.63H127.723V38.63ZM136.029 33.03H137.029V32.03H136.029V33.03ZM136.029 48V49H137.029V48H136.029ZM132.929 48H131.929V49H132.929V48ZM132.929 33.03V32.03H131.929V33.03H132.929ZM135.029 33.03V48H137.029V33.03H135.029ZM136.029 47H132.929V49H136.029V47ZM133.929 48V33.03H131.929V48H133.929ZM132.929 34.03H136.029V32.03H132.929V34.03ZM144.574 41.57V42.57H145.574V41.57H144.574ZM144.474 40.85L143.506 41.099L143.509 41.1119L143.513 41.1247L144.474 40.85ZM144.164 40.23L143.364 40.83L143.376 40.8461L143.389 40.8617L144.164 40.23ZM143.604 39.78L143.167 40.6795L143.167 40.6795L143.604 39.78ZM141.374 40.12L142.081 40.8271L142.088 40.8201L141.374 40.12ZM140.714 41.57L139.728 41.4039L139.532 42.57H140.714V41.57ZM140.674 43.37V42.37H139.552L139.681 43.4846L140.674 43.37ZM141.464 45.26L140.786 45.9953L140.793 46.001L141.464 45.26ZM144.044 45.71L143.728 44.7613L143.728 44.7613L144.044 45.71ZM144.734 45.42L144.276 44.5313L144.264 44.5376L144.734 45.42ZM145.294 45.13L144.847 44.2356L144.84 44.2391L144.833 44.2428L145.294 45.13ZM146.394 45.27L145.576 45.8455L145.596 45.8733L145.617 45.8998L146.394 45.27ZM147.294 46.38L148.048 47.0375L148.601 46.4037L148.071 45.7502L147.294 46.38ZM146.254 47.28L146.78 48.1306L146.784 48.128L146.254 47.28ZM145.114 47.82L145.426 48.7703L145.435 48.7671L145.114 47.82ZM143.944 48.08L143.826 47.0869L143.817 47.0881L143.808 47.0894L143.944 48.08ZM140.784 47.81L140.43 48.7452L140.442 48.7495L140.784 47.81ZM139.114 46.75L138.412 47.4621L138.417 47.467L139.114 46.75ZM137.984 45.01L137.054 45.3768L137.057 45.3844L137.984 45.01ZM137.924 40.62L136.992 40.259L136.988 40.2678L137.924 40.62ZM138.944 38.99L138.222 38.2985L138.217 38.304L138.944 38.99ZM140.554 37.88L140.158 36.9618L140.154 36.9634L140.554 37.88ZM144.574 37.79L144.222 38.7259L144.225 38.7272L144.574 37.79ZM146.044 38.72L145.337 39.4271L145.343 39.4328L146.044 38.72ZM147.004 40.22L146.07 40.5769L146.075 40.5896L147.004 40.22ZM147.324 42.79L148.315 42.9251L148.315 42.9251L147.324 42.79ZM147.214 43.14L146.363 42.6159L146.363 42.6159L147.214 43.14ZM146.994 43.32L146.658 42.3782L146.647 42.3823L146.635 42.3866L146.994 43.32ZM145.574 41.57C145.574 41.2319 145.528 40.8994 145.436 40.5753L143.513 41.1247C143.553 41.2672 143.574 41.4147 143.574 41.57H145.574ZM145.443 40.6009C145.348 40.233 145.181 39.8946 144.939 39.5983L143.389 40.8617C143.441 40.9253 143.48 41.0003 143.506 41.099L145.443 40.6009ZM144.964 39.63C144.718 39.3023 144.401 39.0555 144.041 38.8805L143.167 40.6795C143.274 40.7312 143.33 40.7843 143.364 40.83L144.964 39.63ZM144.041 38.8805C143.639 38.6849 143.197 38.61 142.754 38.61V40.61C142.978 40.61 143.103 40.6484 143.167 40.6795L144.041 38.8805ZM142.754 38.61C141.965 38.61 141.223 38.8454 140.66 39.4199L142.088 40.8201C142.192 40.7146 142.37 40.61 142.754 40.61V38.61ZM140.667 39.4129C140.142 39.9379 139.857 40.6384 139.728 41.4039L141.7 41.7361C141.785 41.2349 141.94 40.9687 142.081 40.8271L140.667 39.4129ZM140.714 42.57H144.574V40.57H140.714V42.57ZM139.681 43.4846C139.795 44.4735 140.114 45.3749 140.786 45.9952L142.142 44.5247C141.962 44.3584 141.754 43.9998 141.668 43.2554L139.681 43.4846ZM140.793 46.001C141.434 46.5821 142.237 46.84 143.114 46.84V44.84C142.644 44.84 142.348 44.7112 142.136 44.519L140.793 46.001ZM143.114 46.84C143.55 46.84 143.972 46.7881 144.36 46.6587L143.728 44.7613C143.596 44.8052 143.398 44.84 143.114 44.84V46.84ZM144.36 46.6587C144.663 46.5578 144.946 46.4402 145.205 46.3023L144.264 44.5376C144.122 44.6131 143.945 44.6888 143.728 44.7613L144.36 46.6587ZM145.193 46.3086C145.4 46.2016 145.588 46.1044 145.756 46.0172L144.833 44.2428C144.667 44.3289 144.482 44.4251 144.276 44.5314L145.193 46.3086ZM145.741 46.0244C145.781 46.0044 145.809 46 145.834 46V44C145.486 44 145.154 44.0822 144.847 44.2356L145.741 46.0244ZM145.834 46C145.835 46 145.79 45.9998 145.725 45.9683C145.655 45.9347 145.605 45.8859 145.576 45.8455L147.212 44.6945C146.873 44.2131 146.361 44 145.834 44V46ZM145.617 45.8998L146.517 47.0098L148.071 45.7502L147.171 44.6402L145.617 45.8998ZM146.541 45.7225C146.279 46.0227 146.006 46.256 145.724 46.432L146.784 48.128C147.249 47.8373 147.67 47.4706 148.048 47.0375L146.541 45.7225ZM145.728 46.4294C145.424 46.6178 145.112 46.7648 144.793 46.8729L145.435 48.7671C145.903 48.6085 146.351 48.3955 146.78 48.1306L145.728 46.4294ZM144.803 46.8697C144.477 46.9763 144.152 47.0483 143.826 47.0869L144.062 49.073C144.523 49.0183 144.978 48.917 145.426 48.7703L144.803 46.8697ZM143.808 47.0894C143.462 47.1371 143.137 47.16 142.834 47.16V49.16C143.238 49.16 143.654 49.1295 144.081 49.0706L143.808 47.0894ZM142.834 47.16C142.217 47.16 141.65 47.0612 141.127 46.8705L140.442 48.7495C141.199 49.0254 141.999 49.16 142.834 49.16V47.16ZM141.139 46.8749C140.632 46.6828 140.192 46.4031 139.811 46.033L138.417 47.467C138.996 48.0302 139.67 48.4572 140.43 48.7451L141.139 46.8749ZM139.816 46.0379C139.452 45.6785 139.147 45.2179 138.911 44.6355L137.057 45.3844C137.382 46.1887 137.83 46.8881 138.412 47.4621L139.816 46.0379ZM138.915 44.6432C138.697 44.0905 138.574 43.4129 138.574 42.59H136.574C136.574 43.6071 136.725 44.5428 137.054 45.3767L138.915 44.6432ZM138.574 42.59C138.574 42.0113 138.671 41.4744 138.86 40.9722L136.988 40.2678C136.711 41.0056 136.574 41.782 136.574 42.59H138.574ZM138.857 40.981C139.052 40.4771 139.324 40.0452 139.672 39.676L138.217 38.304C137.685 38.8682 137.277 39.5229 136.992 40.259L138.857 40.981ZM139.667 39.6814C140.016 39.316 140.442 39.0201 140.954 38.7966L140.154 36.9634C139.414 37.2865 138.765 37.7307 138.222 38.2985L139.667 39.6814ZM140.95 38.7981C141.441 38.5863 142.017 38.47 142.694 38.47V36.47C141.785 36.47 140.934 36.627 140.158 36.9618L140.95 38.7981ZM142.694 38.47C143.277 38.47 143.782 38.5602 144.222 38.7259L144.927 36.8541C144.233 36.5931 143.485 36.47 142.694 36.47V38.47ZM144.225 38.7272C144.673 38.8937 145.038 39.1284 145.337 39.4271L146.751 38.0129C146.237 37.4983 145.622 37.1129 144.923 36.8528L144.225 38.7272ZM145.343 39.4328C145.645 39.7296 145.89 40.1046 146.07 40.5769L147.938 39.8631C147.665 39.1487 147.271 38.5237 146.746 38.0072L145.343 39.4328ZM146.075 40.5896C146.254 41.0392 146.354 41.5772 146.354 42.22H148.354C148.354 41.3694 148.221 40.5741 147.933 39.8504L146.075 40.5896ZM146.354 42.22C146.354 42.4307 146.345 42.5708 146.333 42.6549L148.315 42.9251C148.344 42.7158 148.354 42.476 148.354 42.22H146.354ZM146.333 42.6549C146.329 42.6836 146.326 42.6929 146.328 42.6877C146.329 42.6826 146.338 42.6552 146.363 42.6159L148.066 43.6641C148.217 43.4177 148.284 43.1521 148.315 42.9251L146.333 42.6549ZM146.363 42.6159C146.39 42.5714 146.43 42.5216 146.486 42.476C146.542 42.4302 146.602 42.3983 146.658 42.3782L147.331 44.2617C147.644 44.1497 147.897 43.9389 148.066 43.6641L146.363 42.6159ZM146.635 42.3866C146.655 42.3789 146.671 42.3743 146.682 42.3717C146.692 42.3691 146.698 42.3682 146.699 42.3681C146.7 42.368 146.696 42.3685 146.689 42.369C146.681 42.3695 146.67 42.37 146.654 42.37V44.37C146.861 44.37 147.109 44.3472 147.353 44.2533L146.635 42.3866ZM146.654 42.37H140.674V44.37H146.654V42.37ZM155.495 39.9L154.654 39.3596L154.65 39.366L155.495 39.9ZM155.235 40.17L154.739 39.3017L154.725 39.3098L154.711 39.3183L155.235 40.17ZM154.455 40.16L154.042 41.0704L154.059 41.0783L154.077 41.0855L154.455 40.16ZM153.975 39.95L153.573 40.8653L153.579 40.8682L153.586 40.871L153.975 39.95ZM153.405 39.75L153.107 40.7045L153.121 40.7087L153.135 40.7126L153.405 39.75ZM151.765 39.88L152.344 40.6955L152.349 40.692L151.765 39.88ZM151.655 40.98L150.967 41.705L150.976 41.7134L150.985 41.7215L151.655 40.98ZM152.205 41.32L151.802 42.2349L151.813 42.2399L151.825 42.2447L152.205 41.32ZM152.975 41.59L153.265 40.6328L153.265 40.6328L152.975 41.59ZM153.855 41.88L154.19 40.9378L154.19 40.9378L153.855 41.88ZM154.735 42.26L154.28 43.1502L154.288 43.1545L154.297 43.1586L154.735 42.26ZM155.505 42.79L154.82 43.5182L154.826 43.5236L154.832 43.5289L155.505 42.79ZM156.045 43.55L155.132 43.9561L155.135 43.9645L155.139 43.9729L156.045 43.55ZM155.975 46.05L156.894 46.4456L156.894 46.4456L155.975 46.05ZM155.135 47.17L154.493 46.404L154.486 46.4098L155.135 47.17ZM153.765 47.9L153.463 46.9467L153.46 46.9478L153.765 47.9ZM150.835 48.06L151.021 47.0773L150.835 48.06ZM149.805 47.79L149.478 48.7348L149.484 48.7368L149.805 47.79ZM148.895 47.39L148.399 48.2582L148.407 48.2627L148.415 48.2671L148.895 47.39ZM148.175 46.88L147.33 46.346L146.88 47.0591L147.507 47.6233L148.175 46.88ZM148.895 45.74L149.741 46.274L149.747 46.2643L149.753 46.2545L148.895 45.74ZM149.195 45.43L149.717 46.2833L149.723 46.2794L149.729 46.2755L149.195 45.43ZM150.155 45.43L149.659 46.2982L149.668 46.3031L149.677 46.3079L150.155 45.43ZM151.205 45.95L150.864 46.8898L150.873 46.893L151.205 45.95ZM152.665 46L152.935 46.9629L152.953 46.958L152.97 46.9524L152.665 46ZM153.065 45.79L152.411 45.0343L152.411 45.0343L153.065 45.79ZM153.285 45.5L154.202 45.9008L154.202 45.9008L153.285 45.5ZM153.145 44.66L153.835 43.9358L153.835 43.9358L153.145 44.66ZM152.595 44.32L152.192 45.2349L152.203 45.2399L152.215 45.2447L152.595 44.32ZM151.815 44.05L151.526 45.0072L151.539 45.0112L151.552 45.0147L151.815 44.05ZM150.935 43.76L151.27 42.8178L151.27 42.8178L150.935 43.76ZM150.045 43.38L149.574 44.2618L149.586 44.2683L149.598 44.2744L150.045 43.38ZM149.275 42.81L148.558 43.5068L148.563 43.512L148.568 43.5171L149.275 42.81ZM148.725 41.96L149.647 41.5728L149.647 41.5728L148.725 41.96ZM148.765 39.5L147.848 39.1024L147.845 39.1098L148.765 39.5ZM149.535 38.45L148.874 37.7001L148.874 37.7001L149.535 38.45ZM150.815 37.74L151.135 38.6875L151.146 38.6837L150.815 37.74ZM153.695 37.57L153.507 38.552L153.51 38.5526L153.695 37.57ZM154.685 37.85L155.05 36.9187L155.05 36.9187L154.685 37.85ZM155.525 38.28L154.976 39.1154L154.984 39.1205L154.991 39.1255L155.525 38.28ZM156.195 38.81L157.037 39.3504L157.472 38.6725L156.903 38.1029L156.195 38.81ZM154.65 39.366C154.639 39.3829 154.638 39.3812 154.65 39.3688C154.662 39.3561 154.691 39.3292 154.739 39.3017L155.732 41.0382C156.012 40.8781 156.206 40.6475 156.341 40.434L154.65 39.366ZM154.711 39.3183C154.831 39.2448 154.917 39.25 154.895 39.25V41.25C155.154 41.25 155.467 41.2019 155.76 41.0216L154.711 39.3183ZM154.895 39.25C154.889 39.25 154.87 39.2493 154.834 39.2344L154.077 41.0855C154.334 41.1907 154.609 41.25 154.895 41.25V39.25ZM154.869 39.2496C154.713 39.1788 154.545 39.1052 154.365 39.029L153.586 40.871C153.752 40.9414 153.904 41.0079 154.042 41.0704L154.869 39.2496ZM154.378 39.0347C154.161 38.939 153.925 38.8574 153.676 38.7873L153.135 40.7126C153.312 40.7626 153.457 40.8143 153.573 40.8653L154.378 39.0347ZM153.704 38.7955C153.375 38.6928 153.028 38.65 152.675 38.65V40.65C152.869 40.65 153.009 40.6738 153.107 40.7045L153.704 38.7955ZM152.675 38.65C152.171 38.65 151.631 38.7453 151.182 39.068L152.349 40.692C152.327 40.708 152.393 40.65 152.675 40.65V38.65ZM151.187 39.0645C150.7 39.41 150.455 39.9293 150.455 40.5H152.455C152.455 40.4979 152.455 40.5367 152.427 40.5922C152.399 40.6495 152.362 40.6832 152.344 40.6955L151.187 39.0645ZM150.455 40.5C150.455 40.9517 150.624 41.3789 150.967 41.705L152.344 40.255C152.372 40.2816 152.405 40.3241 152.429 40.3804C152.452 40.4356 152.455 40.4799 152.455 40.5H150.455ZM150.985 41.7215C151.224 41.9383 151.506 42.1044 151.802 42.2349L152.609 40.4051C152.451 40.3355 152.367 40.275 152.326 40.2384L150.985 41.7215ZM151.825 42.2447C152.087 42.3527 152.375 42.4531 152.686 42.5472L153.265 40.6328C153.003 40.5535 152.777 40.474 152.586 40.3953L151.825 42.2447ZM152.686 42.5472C152.956 42.629 153.235 42.7206 153.52 42.8222L154.19 40.9378C153.876 40.8261 153.568 40.7244 153.265 40.6328L152.686 42.5472ZM153.52 42.8222C153.779 42.914 154.032 43.0233 154.28 43.1502L155.191 41.3697C154.866 41.2034 154.532 41.0593 154.19 40.9378L153.52 42.8222ZM154.297 43.1586C154.495 43.2556 154.668 43.3754 154.82 43.5182L156.191 42.0618C155.889 41.7779 155.549 41.5444 155.174 41.3614L154.297 43.1586ZM154.832 43.5289C154.949 43.636 155.05 43.7735 155.132 43.9561L156.959 43.1438C156.774 42.7265 156.515 42.3573 156.179 42.051L154.832 43.5289ZM155.139 43.9729C155.203 44.1099 155.255 44.3181 155.255 44.63H157.255C157.255 44.1019 157.168 43.5901 156.952 43.1271L155.139 43.9729ZM155.255 44.63C155.255 45.0193 155.185 45.3566 155.057 45.6544L156.894 46.4456C157.139 45.8767 157.255 45.2673 157.255 44.63H155.255ZM155.057 45.6544C154.934 45.9396 154.751 46.1875 154.493 46.404L155.778 47.936C156.267 47.5258 156.643 47.027 156.894 46.4456L155.057 45.6544ZM154.486 46.4098C154.238 46.6214 153.906 46.8064 153.463 46.9468L154.068 48.8532C154.718 48.6469 155.299 48.3453 155.785 47.9302L154.486 46.4098ZM153.46 46.9478C153.039 47.0828 152.523 47.16 151.895 47.16V49.16C152.681 49.16 153.411 49.0639 154.071 48.8521L153.46 46.9478ZM151.895 47.16C151.605 47.16 151.314 47.1327 151.021 47.0773L150.65 49.0426C151.063 49.1206 151.479 49.16 151.895 49.16V47.16ZM151.021 47.0773C150.713 47.0192 150.415 46.9411 150.127 46.8432L149.484 48.7368C149.862 48.8656 150.251 48.9674 150.65 49.0426L151.021 47.0773ZM150.133 46.8452C149.855 46.7487 149.603 46.6374 149.376 46.5129L148.415 48.2671C148.748 48.4493 149.103 48.6046 149.478 48.7347L150.133 46.8452ZM149.392 46.5217C149.162 46.3904 148.982 46.2607 148.844 46.1367L147.507 47.6233C147.769 47.8593 148.069 48.0696 148.399 48.2582L149.392 46.5217ZM149.021 47.414L149.741 46.274L148.05 45.206L147.33 46.346L149.021 47.414ZM149.753 46.2545C149.757 46.248 149.756 46.2505 149.749 46.2579C149.742 46.2656 149.731 46.2749 149.717 46.2833L148.674 44.5767C148.402 44.7428 148.192 44.9686 148.038 45.2255L149.753 46.2545ZM149.729 46.2755C149.694 46.2977 149.666 46.3069 149.653 46.3101C149.641 46.313 149.647 46.31 149.675 46.31V44.31C149.347 44.31 148.988 44.3781 148.661 44.5845L149.729 46.2755ZM149.675 46.31C149.691 46.31 149.694 46.3117 149.688 46.3101C149.685 46.3094 149.681 46.3081 149.675 46.306C149.67 46.3038 149.665 46.3012 149.659 46.2982L150.652 44.5617C150.344 44.3857 150.009 44.31 149.675 44.31V46.31ZM149.677 46.3079C149.82 46.3859 149.973 46.4707 150.137 46.5625L151.114 44.8175C150.945 44.7226 150.785 44.6341 150.634 44.5521L149.677 46.3079ZM150.137 46.5625C150.36 46.6873 150.604 46.7953 150.864 46.8898L151.547 45.0102C151.367 44.9447 151.225 44.8794 151.114 44.8175L150.137 46.5625ZM150.873 46.893C151.24 47.0228 151.645 47.07 152.055 47.07V45.07C151.786 45.07 151.624 45.0372 151.538 45.007L150.873 46.893ZM152.055 47.07C152.354 47.07 152.654 47.0416 152.935 46.9629L152.396 45.037C152.343 45.0517 152.237 45.07 152.055 45.07V47.07ZM152.97 46.9524C153.226 46.8705 153.491 46.7445 153.72 46.5457L152.411 45.0343C152.426 45.0209 152.433 45.018 152.426 45.0221C152.418 45.0262 152.397 45.0358 152.361 45.0476L152.97 46.9524ZM153.72 46.5457C153.917 46.3749 154.088 46.1612 154.202 45.9008L152.369 45.0992C152.379 45.0772 152.39 45.06 152.399 45.0481C152.408 45.0365 152.413 45.0323 152.411 45.0343L153.72 46.5457ZM154.202 45.9008C154.302 45.6713 154.355 45.4251 154.355 45.17H152.355C152.355 45.1575 152.357 45.1437 152.36 45.13C152.363 45.1163 152.366 45.1058 152.369 45.0992L154.202 45.9008ZM154.355 45.17C154.355 44.7107 154.188 44.272 153.835 43.9358L152.456 45.3841C152.43 45.3592 152.399 45.3196 152.378 45.2682C152.358 45.2184 152.355 45.1811 152.355 45.17H154.355ZM153.835 43.9358C153.585 43.6976 153.288 43.5237 152.976 43.3953L152.215 45.2447C152.356 45.303 152.426 45.3557 152.456 45.3841L153.835 43.9358ZM152.999 43.4051C152.718 43.2811 152.41 43.1755 152.079 43.0852L151.552 45.0147C151.808 45.0845 152.02 45.1589 152.192 45.2349L152.999 43.4051ZM152.105 43.0928C151.834 43.011 151.556 42.9194 151.27 42.8178L150.6 44.7022C150.915 44.8139 151.223 44.9156 151.526 45.0072L152.105 43.0928ZM151.27 42.8178C151.01 42.7251 150.751 42.6146 150.493 42.4856L149.598 44.2744C149.927 44.4387 150.261 44.5815 150.6 44.7022L151.27 42.8178ZM150.517 42.4982C150.316 42.3905 150.139 42.2591 149.983 42.1029L148.568 43.5171C148.865 43.8142 149.202 44.0628 149.574 44.2618L150.517 42.4982ZM149.993 42.1132C149.862 41.9788 149.745 41.8038 149.647 41.5728L147.803 42.3472C147.986 42.7828 148.235 43.1745 148.558 43.5068L149.993 42.1132ZM149.647 41.5728C149.572 41.3936 149.515 41.1295 149.515 40.75H147.515C147.515 41.3172 147.599 41.8597 147.803 42.3472L149.647 41.5728ZM149.515 40.75C149.515 40.4399 149.573 40.1563 149.686 39.8901L147.845 39.1098C147.624 39.6303 147.515 40.1801 147.515 40.75H149.515ZM149.683 39.8976C149.796 39.6378 149.963 39.4066 150.197 39.1998L148.874 37.7001C148.428 38.0933 148.082 38.5622 147.848 39.1024L149.683 39.8976ZM150.197 39.1998C150.42 39.0031 150.724 38.8264 151.135 38.6874L150.496 36.7925C149.88 37.0003 149.331 37.2969 148.874 37.7001L150.197 39.1998ZM151.146 38.6837C151.53 38.5493 152.013 38.47 152.615 38.47V36.47C151.844 36.47 151.128 36.5707 150.485 36.7963L151.146 38.6837ZM152.615 38.47C152.929 38.47 153.226 38.498 153.507 38.552L153.884 36.588C153.472 36.5087 153.049 36.47 152.615 36.47V38.47ZM153.51 38.5526C153.808 38.6088 154.077 38.6859 154.321 38.7812L155.05 36.9187C154.68 36.7741 154.29 36.6645 153.881 36.5873L153.51 38.5526ZM154.321 38.7812C154.568 38.878 154.785 38.9902 154.976 39.1154L156.075 37.4446C155.759 37.2365 155.416 37.062 155.05 36.9187L154.321 38.7812ZM154.991 39.1255C155.188 39.2496 155.352 39.3809 155.488 39.5171L156.903 38.1029C156.652 37.8524 156.37 37.6303 156.059 37.4345L154.991 39.1255ZM155.354 38.2696L154.654 39.3596L156.337 40.4404L157.037 39.3504L155.354 38.2696ZM164.402 39.9L163.56 39.3596L163.556 39.366L164.402 39.9ZM164.142 40.17L163.646 39.3017L163.631 39.3098L163.618 39.3183L164.142 40.17ZM163.362 40.16L162.948 41.0704L162.965 41.0783L162.983 41.0855L163.362 40.16ZM162.882 39.95L162.479 40.8653L162.486 40.8682L162.492 40.871L162.882 39.95ZM162.312 39.75L162.013 40.7045L162.027 40.7087L162.041 40.7126L162.312 39.75ZM160.672 39.88L161.25 40.6955L161.255 40.692L160.672 39.88ZM160.562 40.98L159.873 41.705L159.882 41.7134L159.891 41.7215L160.562 40.98ZM161.112 41.32L160.708 42.2349L160.719 42.2399L160.731 42.2447L161.112 41.32ZM161.882 41.59L162.171 40.6328L162.171 40.6328L161.882 41.59ZM162.762 41.88L163.097 40.9378L163.097 40.9378L162.762 41.88ZM163.642 42.26L163.186 43.1502L163.195 43.1545L163.203 43.1586L163.642 42.26ZM164.412 42.79L163.726 43.5182L163.732 43.5236L163.738 43.5289L164.412 42.79ZM164.952 43.55L164.038 43.9561L164.042 43.9645L164.046 43.9729L164.952 43.55ZM164.882 46.05L165.8 46.4456L165.8 46.4456L164.882 46.05ZM164.042 47.17L163.399 46.404L163.392 46.4098L164.042 47.17ZM162.672 47.9L162.369 46.9467L162.366 46.9478L162.672 47.9ZM159.742 48.06L159.927 47.0773L159.742 48.06ZM158.712 47.79L158.384 48.7348L158.39 48.7368L158.712 47.79ZM157.802 47.39L157.306 48.2582L157.313 48.2627L157.321 48.2671L157.802 47.39ZM157.082 46.88L156.236 46.346L155.786 47.0591L156.413 47.6233L157.082 46.88ZM157.802 45.74L158.647 46.274L158.653 46.2643L158.659 46.2545L157.802 45.74ZM158.102 45.43L158.623 46.2833L158.629 46.2794L158.636 46.2755L158.102 45.43ZM159.062 45.43L158.566 46.2982L158.574 46.3031L158.583 46.3079L159.062 45.43ZM160.112 45.95L159.77 46.8898L159.779 46.893L160.112 45.95ZM161.572 46L161.841 46.9629L161.859 46.958L161.876 46.9524L161.572 46ZM161.972 45.79L161.317 45.0343L161.317 45.0343L161.972 45.79ZM162.192 45.5L163.108 45.9008L163.108 45.9008L162.192 45.5ZM162.052 44.66L162.741 43.9358L162.741 43.9358L162.052 44.66ZM161.502 44.32L161.098 45.2349L161.109 45.2399L161.121 45.2447L161.502 44.32ZM160.722 44.05L160.432 45.0072L160.445 45.0112L160.459 45.0147L160.722 44.05ZM159.842 43.76L160.177 42.8178L160.177 42.8178L159.842 43.76ZM158.952 43.38L158.48 44.2618L158.492 44.2683L158.505 44.2744L158.952 43.38ZM158.182 42.81L157.464 43.5068L157.469 43.512L157.475 43.5171L158.182 42.81ZM157.632 41.96L158.554 41.5728L158.554 41.5728L157.632 41.96ZM157.672 39.5L156.754 39.1024L156.751 39.1098L157.672 39.5ZM158.442 38.45L157.78 37.7001L157.78 37.7001L158.442 38.45ZM159.722 37.74L160.042 38.6875L160.053 38.6837L159.722 37.74ZM162.602 37.57L162.413 38.552L162.416 38.5526L162.602 37.57ZM163.592 37.85L163.956 36.9187L163.956 36.9187L163.592 37.85ZM164.432 38.28L163.882 39.1154L163.89 39.1205L163.898 39.1255L164.432 38.28ZM165.102 38.81L165.943 39.3504L166.378 38.6725L165.809 38.1029L165.102 38.81ZM163.556 39.366C163.546 39.3829 163.545 39.3812 163.556 39.3688C163.569 39.3561 163.597 39.3292 163.646 39.3017L164.638 41.0382C164.918 40.8781 165.112 40.6475 165.247 40.434L163.556 39.366ZM163.618 39.3183C163.737 39.2448 163.824 39.25 163.802 39.25V41.25C164.06 41.25 164.373 41.2019 164.666 41.0216L163.618 39.3183ZM163.802 39.25C163.795 39.25 163.777 39.2493 163.74 39.2344L162.983 41.0855C163.24 41.1907 163.515 41.25 163.802 41.25V39.25ZM163.776 39.2496C163.62 39.1788 163.451 39.1052 163.271 39.029L162.492 40.871C162.659 40.9414 162.81 41.0079 162.948 41.0704L163.776 39.2496ZM163.284 39.0347C163.067 38.939 162.832 38.8574 162.582 38.7873L162.041 40.7126C162.219 40.7626 162.363 40.8143 162.479 40.8653L163.284 39.0347ZM162.61 38.7955C162.281 38.6928 161.935 38.65 161.582 38.65V40.65C161.776 40.65 161.915 40.6738 162.013 40.7045L162.61 38.7955ZM161.582 38.65C161.078 38.65 160.537 38.7453 160.088 39.068L161.255 40.692C161.233 40.708 161.299 40.65 161.582 40.65V38.65ZM160.093 39.0645C159.606 39.41 159.362 39.9293 159.362 40.5H161.362C161.362 40.4979 161.361 40.5367 161.334 40.5922C161.305 40.6495 161.268 40.6832 161.25 40.6955L160.093 39.0645ZM159.362 40.5C159.362 40.9517 159.53 41.3789 159.873 41.705L161.25 40.255C161.278 40.2816 161.311 40.3241 161.335 40.3804C161.358 40.4356 161.362 40.4799 161.362 40.5H159.362ZM159.891 41.7215C160.13 41.9383 160.412 42.1044 160.708 42.2349L161.515 40.4051C161.358 40.3355 161.273 40.275 161.233 40.2384L159.891 41.7215ZM160.731 42.2447C160.993 42.3527 161.281 42.4531 161.592 42.5472L162.171 40.6328C161.909 40.5535 161.684 40.474 161.492 40.3953L160.731 42.2447ZM161.592 42.5472C161.863 42.629 162.141 42.7206 162.427 42.8222L163.097 40.9378C162.783 40.8261 162.474 40.7244 162.171 40.6328L161.592 42.5472ZM162.427 42.8222C162.685 42.914 162.938 43.0233 163.186 43.1502L164.097 41.3697C163.772 41.2034 163.438 41.0593 163.097 40.9378L162.427 42.8222ZM163.203 43.1586C163.402 43.2556 163.575 43.3754 163.726 43.5182L165.097 42.0618C164.795 41.7779 164.455 41.5444 164.081 41.3614L163.203 43.1586ZM163.738 43.5289C163.855 43.636 163.957 43.7735 164.038 43.9561L165.866 43.1438C165.68 42.7265 165.421 42.3573 165.085 42.051L163.738 43.5289ZM164.046 43.9729C164.109 44.1099 164.162 44.3181 164.162 44.63H166.162C166.162 44.1019 166.074 43.5901 165.858 43.1271L164.046 43.9729ZM164.162 44.63C164.162 45.0193 164.092 45.3566 163.963 45.6544L165.8 46.4456C166.045 45.8767 166.162 45.2673 166.162 44.63H164.162ZM163.963 45.6544C163.84 45.9396 163.657 46.1875 163.399 46.404L164.685 47.936C165.173 47.5258 165.55 47.027 165.8 46.4456L163.963 45.6544ZM163.392 46.4098C163.144 46.6214 162.812 46.8064 162.369 46.9468L162.974 48.8532C163.624 48.6469 164.206 48.3453 164.691 47.9302L163.392 46.4098ZM162.366 46.9478C161.946 47.0828 161.429 47.16 160.802 47.16V49.16C161.588 49.16 162.318 49.0639 162.977 48.8521L162.366 46.9478ZM160.802 47.16C160.512 47.16 160.22 47.1327 159.927 47.0773L159.556 49.0426C159.97 49.1206 160.385 49.16 160.802 49.16V47.16ZM159.927 47.0773C159.619 47.0192 159.321 46.9411 159.034 46.8432L158.39 48.7368C158.769 48.8656 159.158 48.9674 159.556 49.0426L159.927 47.0773ZM159.039 46.8452C158.761 46.7487 158.509 46.6374 158.282 46.5129L157.321 48.2671C157.654 48.4493 158.009 48.6046 158.384 48.7347L159.039 46.8452ZM158.298 46.5217C158.068 46.3904 157.888 46.2607 157.751 46.1367L156.413 47.6233C156.675 47.8593 156.975 48.0696 157.306 48.2582L158.298 46.5217ZM157.927 47.414L158.647 46.274L156.956 45.206L156.236 46.346L157.927 47.414ZM158.659 46.2545C158.663 46.248 158.662 46.2505 158.655 46.2579C158.648 46.2656 158.637 46.2749 158.623 46.2833L157.58 44.5767C157.308 44.7428 157.098 44.9686 156.944 45.2255L158.659 46.2545ZM158.636 46.2755C158.601 46.2977 158.572 46.3069 158.559 46.3101C158.548 46.313 158.553 46.31 158.582 46.31V44.31C158.253 44.31 157.895 44.3781 157.568 44.5845L158.636 46.2755ZM158.582 46.31C158.597 46.31 158.6 46.3117 158.594 46.3101C158.591 46.3094 158.587 46.3081 158.582 46.306C158.576 46.3038 158.571 46.3012 158.566 46.2982L159.558 44.5617C159.25 44.3857 158.915 44.31 158.582 44.31V46.31ZM158.583 46.3079C158.726 46.3859 158.879 46.4707 159.043 46.5625L160.02 44.8175C159.851 44.7226 159.691 44.6341 159.541 44.5521L158.583 46.3079ZM159.043 46.5625C159.266 46.6873 159.51 46.7953 159.77 46.8898L160.453 45.0102C160.273 44.9447 160.131 44.8794 160.02 44.8175L159.043 46.5625ZM159.779 46.893C160.147 47.0228 160.552 47.07 160.962 47.07V45.07C160.692 45.07 160.53 45.0372 160.445 45.007L159.779 46.893ZM160.962 47.07C161.26 47.07 161.56 47.0416 161.841 46.9629L161.302 45.037C161.25 45.0517 161.143 45.07 160.962 45.07V47.07ZM161.876 46.9524C162.133 46.8705 162.397 46.7445 162.627 46.5457L161.317 45.0343C161.332 45.0209 161.34 45.018 161.332 45.0221C161.324 45.0262 161.304 45.0358 161.267 45.0476L161.876 46.9524ZM162.627 46.5457C162.824 46.3749 162.994 46.1612 163.108 45.9008L161.276 45.0992C161.285 45.0772 161.296 45.06 161.305 45.0481C161.314 45.0365 161.319 45.0323 161.317 45.0343L162.627 46.5457ZM163.108 45.9008C163.208 45.6713 163.262 45.4251 163.262 45.17H161.262C161.262 45.1575 161.263 45.1437 161.266 45.13C161.269 45.1163 161.273 45.1058 161.276 45.0992L163.108 45.9008ZM163.262 45.17C163.262 44.7107 163.094 44.272 162.741 43.9358L161.362 45.3841C161.336 45.3592 161.306 45.3196 161.285 45.2682C161.264 45.2184 161.262 45.1811 161.262 45.17H163.262ZM162.741 43.9358C162.491 43.6976 162.194 43.5237 161.882 43.3953L161.121 45.2447C161.263 45.303 161.332 45.3557 161.362 45.3841L162.741 43.9358ZM161.905 43.4051C161.624 43.2811 161.316 43.1755 160.985 43.0852L160.459 45.0147C160.714 45.0845 160.926 45.1589 161.098 45.2349L161.905 43.4051ZM161.011 43.0928C160.741 43.011 160.463 42.9194 160.177 42.8178L159.507 44.7022C159.821 44.8139 160.129 44.9156 160.432 45.0072L161.011 43.0928ZM160.177 42.8178C159.916 42.7251 159.657 42.6146 159.399 42.4856L158.505 44.2744C158.833 44.4387 159.167 44.5815 159.507 44.7022L160.177 42.8178ZM159.423 42.4982C159.222 42.3905 159.045 42.2591 158.889 42.1029L157.475 43.5171C157.772 43.8142 158.108 44.0628 158.48 44.2618L159.423 42.4982ZM158.899 42.1132C158.768 41.9788 158.651 41.8038 158.554 41.5728L156.71 42.3472C156.893 42.7828 157.142 43.1745 157.464 43.5068L158.899 42.1132ZM158.554 41.5728C158.478 41.3936 158.422 41.1295 158.422 40.75H156.422C156.422 41.3172 156.505 41.8597 156.71 42.3472L158.554 41.5728ZM158.422 40.75C158.422 40.4399 158.48 40.1563 158.592 39.8901L156.751 39.1098C156.53 39.6303 156.422 40.1801 156.422 40.75H158.422ZM158.589 39.8976C158.702 39.6378 158.869 39.4066 159.103 39.1998L157.78 37.7001C157.334 38.0933 156.988 38.5622 156.754 39.1024L158.589 39.8976ZM159.103 39.1998C159.326 39.0031 159.63 38.8264 160.042 38.6874L159.402 36.7925C158.787 37.0003 158.237 37.2969 157.78 37.7001L159.103 39.1998ZM160.053 38.6837C160.436 38.5493 160.919 38.47 161.522 38.47V36.47C160.751 36.47 160.034 36.5707 159.391 36.7963L160.053 38.6837ZM161.522 38.47C161.835 38.47 162.132 38.498 162.413 38.552L162.791 36.588C162.378 36.5087 161.955 36.47 161.522 36.47V38.47ZM162.416 38.5526C162.714 38.6088 162.984 38.6859 163.227 38.7812L163.956 36.9187C163.587 36.7741 163.196 36.6645 162.787 36.5873L162.416 38.5526ZM163.227 38.7812C163.475 38.878 163.692 38.9902 163.882 39.1154L164.981 37.4446C164.665 37.2365 164.322 37.062 163.956 36.9187L163.227 38.7812ZM163.898 39.1255C164.094 39.2496 164.258 39.3809 164.395 39.5171L165.809 38.1029C165.558 37.8524 165.276 37.6303 164.966 37.4345L163.898 39.1255ZM164.26 38.2696L163.56 39.3596L165.243 40.4404L165.943 39.3504L164.26 38.2696Z" fill="black" mask="url(#path-18-outside-2_161_3)"/>
<circle cx="59.1284" cy="16.1282" r="15.1283" fill="white" stroke="black"/>
<path d="M52.9071 19.8658L51.0045 17.932C50.6333 17.5547 50.025 17.5547 49.6538 17.932C49.291 18.3007 49.291 18.8922 49.6538 19.2609L52.8908 22.551C53.6744 23.3474 54.9585 23.3474 55.7421 22.551L63.3409 14.8278C63.6982 14.4646 63.6756 13.8753 63.2914 13.5405C62.9417 13.2359 62.4161 13.2531 62.087 13.5799L55.7422 19.8821C54.9559 20.6631 53.6844 20.6558 52.9071 19.8658Z" fill="white" stroke="black"/>
<circle cx="66.5" cy="10.5" r="1.5" fill="white" stroke="black"/>
</svg>
