<svg width="92" height="92" viewBox="0 0 92 92" fill="none" xmlns="http://www.w3.org/2000/svg">
<circle cx="46" cy="46" r="42.5" stroke="black" stroke-width="7"/>
<path d="M25.7939 18.7604L20.6867 24.2605C20.3084 24.6678 20.335 25.3054 20.7457 25.6799L35.0928 38.761C35.7677 39.3764 35.3323 40.5 34.419 40.5H26C25.4477 40.5 25 40.9477 25 41.5V48.5C25 49.0523 25.4477 49.5 26 49.5H41C41.5523 49.5 42 49.9477 42 50.5V56.5C42 57.0523 41.5523 57.5 41 57.5H26C25.4477 57.5 25 57.9477 25 58.5V66C25 66.5523 25.4477 67 26 67H41C41.5523 67 42 67.4477 42 68V76C42 76.5523 42.4477 77 43 77H48.5C49.0523 77 49.5 76.5523 49.5 76V68C49.5 67.4477 49.9477 67 50.5 67H65.5C66.0523 67 66.5 66.5523 66.5 66V58.5C66.5 57.9477 66.0523 57.5 65.5 57.5H50.5C49.9477 57.5 49.5 57.0523 49.5 56.5V50.5C49.5 49.9477 49.9477 49.5 50.5 49.5H65.5C66.0523 49.5 66.5 49.0523 66.5 48.5V41.5C66.5 40.9477 66.0523 40.5 65.5 40.5H58.9695C58.0709 40.5 57.6283 39.407 58.2737 38.7818L71.7447 25.7317C72.1555 25.3337 72.1494 24.6728 71.7312 24.2824L65.7155 18.6678C65.3179 18.2967 64.6965 18.3114 64.317 18.701L46.707 36.7744C46.318 37.1736 45.6778 37.1778 45.2836 36.7836L27.2338 18.7338C26.833 18.333 26.1796 18.3451 25.7939 18.7604Z" fill="black"/>
</svg>
